<?xml version="1.0" encoding="utf-8"?>
<!-- Generator: Adobe Illustrator 22.1.0, SVG Export Plug-In . SVG Version: 6.00 Build 0)  -->
<svg version="1.1" id="Layer_1" xmlns="http://www.w3.org/2000/svg" xmlns:xlink="http://www.w3.org/1999/xlink" x="0px" y="0px"
	 viewBox="0 0 1101.6 659.7" style="enable-background:new 0 0 1101.6 659.7;" xml:space="preserve">
<style type="text/css">
	.st0{fill:#FFFFFF;stroke:#000000;stroke-width:0.25;stroke-miterlimit:10;}
	.st1{fill:#F3AD7B;}
	.st2{fill:none;}
	.st3{fill:none;stroke:#000000;stroke-width:0.8;stroke-linejoin:round;stroke-miterlimit:10;}
	.st4{font-family:'GillSans';}
	.st5{font-size:12px;}
	.st6{font-size:17px;}
	.st7{fill:none;stroke:#000000;stroke-width:0.25;stroke-linecap:square;stroke-miterlimit:10;}
	.st8{fill:none;stroke:#000000;stroke-width:0.25;stroke-miterlimit:10;}
</style>
<rect x="111.5" y="69.1" class="st0" width="948.6" height="434.9"/>
<rect x="117.6" y="318.3" class="st1" width="12.2" height="1.3"/>
<rect x="111.5" y="69.1" class="st2" width="948.6" height="434.9"/>
<rect x="141.9" y="289.4" class="st1" width="12.2" height="30.2"/>
<rect x="111.5" y="69.1" class="st2" width="948.6" height="434.9"/>
<rect x="166.2" y="202.9" class="st1" width="12.2" height="116.6"/>
<rect x="111.5" y="69.1" class="st2" width="948.6" height="434.9"/>
<rect x="190.5" y="271.4" class="st1" width="12.2" height="48.2"/>
<rect x="111.5" y="69.1" class="st2" width="948.6" height="434.9"/>
<rect x="214.9" y="286.1" class="st1" width="12.2" height="33.4"/>
<rect x="111.5" y="69.1" class="st2" width="948.6" height="434.9"/>
<rect x="239.2" y="257.5" class="st1" width="12.2" height="62"/>
<rect x="111.5" y="69.1" class="st2" width="948.6" height="434.9"/>
<rect x="263.5" y="319.6" class="st1" width="12.2" height="42.7"/>
<rect x="111.5" y="69.1" class="st2" width="948.6" height="434.9"/>
<rect x="287.8" y="272.6" class="st1" width="12.2" height="47"/>
<rect x="111.5" y="69.1" class="st2" width="948.6" height="434.9"/>
<rect x="312.2" y="205.4" class="st1" width="12.2" height="114.2"/>
<rect x="111.5" y="69.1" class="st2" width="948.6" height="434.9"/>
<rect x="336.5" y="307" class="st1" width="12.2" height="12.6"/>
<rect x="111.5" y="69.1" class="st2" width="948.6" height="434.9"/>
<rect x="360.8" y="319.6" class="st1" width="12.2" height="4.3"/>
<rect x="111.5" y="69.1" class="st2" width="948.6" height="434.9"/>
<rect x="385.1" y="178.5" class="st1" width="12.2" height="141.1"/>
<rect x="111.5" y="69.1" class="st2" width="948.6" height="434.9"/>
<rect x="409.4" y="269.8" class="st1" width="12.2" height="49.7"/>
<rect x="111.5" y="69.1" class="st2" width="948.6" height="434.9"/>
<rect x="433.8" y="262.8" class="st1" width="12.2" height="56.7"/>
<rect x="111.5" y="69.1" class="st2" width="948.6" height="434.9"/>
<rect x="458.1" y="281.1" class="st1" width="12.2" height="38.4"/>
<rect x="111.5" y="69.1" class="st2" width="948.6" height="434.9"/>
<rect x="482.4" y="299.7" class="st1" width="12.2" height="19.9"/>
<rect x="111.5" y="69.1" class="st2" width="948.6" height="434.9"/>
<rect x="506.7" y="252.7" class="st1" width="12.2" height="66.9"/>
<rect x="111.5" y="69.1" class="st2" width="948.6" height="434.9"/>
<rect x="531.1" y="265.1" class="st1" width="12.2" height="54.5"/>
<rect x="111.5" y="69.1" class="st2" width="948.6" height="434.9"/>
<rect x="555.4" y="240.8" class="st1" width="12.2" height="78.8"/>
<rect x="111.5" y="69.1" class="st2" width="948.6" height="434.9"/>
<rect x="579.7" y="238.2" class="st1" width="12.2" height="81.3"/>
<rect x="111.5" y="69.1" class="st2" width="948.6" height="434.9"/>
<rect x="604" y="302.1" class="st1" width="12.2" height="17.4"/>
<rect x="111.5" y="69.1" class="st2" width="948.6" height="434.9"/>
<rect x="628.4" y="289" class="st1" width="12.2" height="30.6"/>
<rect x="111.5" y="69.1" class="st2" width="948.6" height="434.9"/>
<rect x="652.7" y="225" class="st1" width="12.2" height="94.6"/>
<rect x="111.5" y="69.1" class="st2" width="948.6" height="434.9"/>
<rect x="677" y="166.6" class="st1" width="12.2" height="152.9"/>
<rect x="111.5" y="69.1" class="st2" width="948.6" height="434.9"/>
<rect x="701.3" y="234.5" class="st1" width="12.2" height="85"/>
<rect x="111.5" y="69.1" class="st2" width="948.6" height="434.9"/>
<rect x="725.6" y="260.7" class="st1" width="12.2" height="58.9"/>
<rect x="111.5" y="69.1" class="st2" width="948.6" height="434.9"/>
<rect x="750" y="296.3" class="st1" width="12.2" height="23.3"/>
<rect x="111.5" y="69.1" class="st2" width="948.6" height="434.9"/>
<rect x="774.3" y="88.9" class="st1" width="12.2" height="230.7"/>
<rect x="111.5" y="69.1" class="st2" width="948.6" height="434.9"/>
<rect x="798.6" y="161.6" class="st1" width="12.2" height="157.9"/>
<rect x="111.5" y="69.1" class="st2" width="948.6" height="434.9"/>
<rect x="822.9" y="319.6" class="st1" width="12.2" height="20"/>
<rect x="111.5" y="69.1" class="st2" width="948.6" height="434.9"/>
<rect x="847.3" y="265" class="st1" width="12.2" height="54.6"/>
<rect x="111.5" y="69.1" class="st2" width="948.6" height="434.9"/>
<rect x="871.6" y="317.9" class="st1" width="12.2" height="1.7"/>
<rect x="111.5" y="69.1" class="st2" width="948.6" height="434.9"/>
<rect x="895.9" y="317.7" class="st1" width="12.2" height="1.9"/>
<rect x="111.5" y="69.1" class="st2" width="948.6" height="434.9"/>
<rect x="920.2" y="169.6" class="st1" width="12.2" height="149.9"/>
<rect x="111.5" y="69.1" class="st2" width="948.6" height="434.9"/>
<rect x="944.6" y="233.1" class="st1" width="12.2" height="86.5"/>
<rect x="111.5" y="69.1" class="st2" width="948.6" height="434.9"/>
<rect x="968.9" y="268.6" class="st1" width="12.2" height="51"/>
<rect x="111.5" y="69.1" class="st2" width="948.6" height="434.9"/>
<rect x="993.2" y="239" class="st1" width="12.2" height="80.6"/>
<rect x="111.5" y="69.1" class="st2" width="948.6" height="434.9"/>
<rect x="1017.5" y="319.6" class="st1" width="12.2" height="164.7"/>
<rect x="111.5" y="69.1" class="st2" width="948.6" height="434.9"/>
<rect x="1041.8" y="319.6" class="st1" width="12.2" height="101.5"/>
<rect x="111.5" y="69.1" class="st2" width="948.6" height="434.9"/>
<line x1="123.6" y1="504" x2="123.6" y2="507.5"/>
<line class="st3" x1="123.6" y1="504" x2="123.6" y2="507.5"/>
<text transform="matrix(-6.123234e-17 -1 1 -6.123234e-17 126.9601 550.4526)" class="st4 st5">Alaska</text>
<line x1="148" y1="504" x2="148" y2="507.5"/>
<line class="st3" x1="148" y1="504" x2="148" y2="507.5"/>
<text transform="matrix(-6.123234e-17 -1 1 -6.123234e-17 151.2832 563.9219)" class="st4 st5">Alabama</text>
<line x1="172.3" y1="504" x2="172.3" y2="507.5"/>
<line class="st3" x1="172.3" y1="504" x2="172.3" y2="507.5"/>
<text transform="matrix(-6.123234e-17 -1 1 -6.123234e-17 175.6062 556.0781)" class="st4 st5">Arizona</text>
<line x1="196.6" y1="504" x2="196.6" y2="507.5"/>
<line class="st3" x1="196.6" y1="504" x2="196.6" y2="507.5"/>
<text transform="matrix(-6.123234e-17 -1 1 -6.123234e-17 199.9293 568.1875)" class="st4 st5">California</text>
<line x1="220.9" y1="504" x2="220.9" y2="507.5"/>
<line class="st3" x1="220.9" y1="504" x2="220.9" y2="507.5"/>
<text transform="matrix(-6.123234e-17 -1 1 -6.123234e-17 224.2524 564.6562)" class="st4 st5">Colorado</text>
<line x1="245.3" y1="504" x2="245.3" y2="507.5"/>
<line class="st3" x1="245.3" y1="504" x2="245.3" y2="507.5"/>
<text transform="matrix(-6.123234e-17 -1 1 -6.123234e-17 248.5755 582.8599)" class="st4 st5">Connecticut</text>
<line x1="269.6" y1="504" x2="269.6" y2="507.5"/>
<line class="st3" x1="269.6" y1="504" x2="269.6" y2="507.5"/>
<text transform="matrix(-6.123234e-17 -1 1 -6.123234e-17 272.8985 629.9214)" class="st4 st5">District of Columbia</text>
<line x1="293.9" y1="504" x2="293.9" y2="507.5"/>
<line class="st3" x1="293.9" y1="504" x2="293.9" y2="507.5"/>
<text transform="matrix(-6.123234e-17 -1 1 -6.123234e-17 297.2216 567.8135)" class="st4 st5">Delaware</text>
<line x1="318.2" y1="504" x2="318.2" y2="507.5"/>
<line class="st3" x1="318.2" y1="504" x2="318.2" y2="507.5"/>
<text transform="matrix(-6.123234e-17 -1 1 -6.123234e-17 321.5447 551.8281)" class="st4 st5">Florida</text>
<line x1="342.6" y1="504" x2="342.6" y2="507.5"/>
<line class="st3" x1="342.6" y1="504" x2="342.6" y2="507.5"/>
<text transform="matrix(-6.123234e-17 -1 1 -6.123234e-17 345.8678 558.2803)" class="st4 st5">Georgia</text>
<line x1="366.9" y1="504" x2="366.9" y2="507.5"/>
<line class="st3" x1="366.9" y1="504" x2="366.9" y2="507.5"/>
<text transform="matrix(-6.123234e-17 -1 1 -6.123234e-17 370.1909 539.063)" class="st4 st5">Iowa</text>
<line x1="391.2" y1="504" x2="391.2" y2="507.5"/>
<line class="st3" x1="391.2" y1="504" x2="391.2" y2="507.5"/>
<text transform="matrix(-6.123234e-17 -1 1 -6.123234e-17 394.5139 555.437)" class="st4 st5">Indiana</text>
<line x1="415.5" y1="504" x2="415.5" y2="507.5"/>
<line class="st3" x1="415.5" y1="504" x2="415.5" y2="507.5"/>
<text transform="matrix(-6.123234e-17 -1 1 -6.123234e-17 418.837 553.7036)" class="st4 st5">Kansas</text>
<line x1="439.8" y1="504" x2="439.8" y2="507.5"/>
<line class="st3" x1="439.8" y1="504" x2="439.8" y2="507.5"/>
<text transform="matrix(-6.123234e-17 -1 1 -6.123234e-17 443.1601 567.875)" class="st4 st5">Louisiana</text>
<line x1="464.2" y1="504" x2="464.2" y2="507.5"/>
<line class="st3" x1="464.2" y1="504" x2="464.2" y2="507.5"/>
<text transform="matrix(-6.123234e-17 -1 1 -6.123234e-17 467.4831 566.6885)" class="st4 st5">Maryland</text>
<line x1="488.5" y1="504" x2="488.5" y2="507.5"/>
<line class="st3" x1="488.5" y1="504" x2="488.5" y2="507.5"/>
<text transform="matrix(-6.123234e-17 -1 1 -6.123234e-17 491.8062 547.0469)" class="st4 st5">Maine</text>
<line x1="512.8" y1="504" x2="512.8" y2="507.5"/>
<line class="st3" x1="512.8" y1="504" x2="512.8" y2="507.5"/>
<text transform="matrix(-6.123234e-17 -1 1 -6.123234e-17 516.1293 572.9526)" class="st4 st5">Minnesota</text>
<line x1="537.1" y1="504" x2="537.1" y2="507.5"/>
<line class="st3" x1="537.1" y1="504" x2="537.1" y2="507.5"/>
<text transform="matrix(-6.123234e-17 -1 1 -6.123234e-17 540.4525 563.3442)" class="st4 st5">Montana</text>
<line x1="561.5" y1="504" x2="561.5" y2="507.5"/>
<line class="st3" x1="561.5" y1="504" x2="561.5" y2="507.5"/>
<text transform="matrix(-6.123234e-17 -1 1 -6.123234e-17 564.7755 598.0308)" class="st4 st5">North Carolina</text>
<line x1="585.8" y1="504" x2="585.8" y2="507.5"/>
<line class="st3" x1="585.8" y1="504" x2="585.8" y2="507.5"/>
<text transform="matrix(-6.123234e-17 -1 1 -6.123234e-17 589.0986 567.8604)" class="st4 st5">Nebraska</text>
<line x1="610.1" y1="504" x2="610.1" y2="507.5"/>
<line class="st3" x1="610.1" y1="504" x2="610.1" y2="507.5"/>
<text transform="matrix(-6.123234e-17 -1 1 -6.123234e-17 613.4216 577.625)" class="st4 st5">New Jersey</text>
<line x1="634.4" y1="504" x2="634.4" y2="507.5"/>
<line class="st3" x1="634.4" y1="504" x2="634.4" y2="507.5"/>
<text transform="matrix(-6.123234e-17 -1 1 -6.123234e-17 637.7448 583.124)" class="st4 st5">New Mexico</text>
<line x1="658.8" y1="504" x2="658.8" y2="507.5"/>
<line class="st3" x1="658.8" y1="504" x2="658.8" y2="507.5"/>
<text transform="matrix(-6.123234e-17 -1 1 -6.123234e-17 662.0678 560.6406)" class="st4 st5">Nevada </text>
<line x1="683.1" y1="504" x2="683.1" y2="507.5"/>
<line class="st3" x1="683.1" y1="504" x2="683.1" y2="507.5"/>
<text transform="matrix(-6.123234e-17 -1 1 -6.123234e-17 686.3909 567.5469)" class="st4 st5">New York</text>
<line x1="707.4" y1="504" x2="707.4" y2="507.5"/>
<line class="st3" x1="707.4" y1="504" x2="707.4" y2="507.5"/>
<text transform="matrix(-6.123234e-17 -1 1 -6.123234e-17 710.714 538.7354)" class="st4 st5">Ohio</text>
<line x1="731.7" y1="504" x2="731.7" y2="507.5"/>
<line class="st3" x1="731.7" y1="504" x2="731.7" y2="507.5"/>
<text transform="matrix(-6.123234e-17 -1 1 -6.123234e-17 735.037 572.0938)" class="st4 st5">Oklahoma</text>
<line x1="756" y1="504" x2="756" y2="507.5"/>
<line class="st3" x1="756" y1="504" x2="756" y2="507.5"/>
<text transform="matrix(-6.123234e-17 -1 1 -6.123234e-17 759.3601 555.3604)" class="st4 st5">Oregon</text>
<line x1="780.4" y1="504" x2="780.4" y2="507.5"/>
<line class="st3" x1="780.4" y1="504" x2="780.4" y2="507.5"/>
<text transform="matrix(-6.123234e-17 -1 1 -6.123234e-17 783.6832 590.2969)" class="st4 st5">Pennsylvania</text>
<line x1="804.7" y1="504" x2="804.7" y2="507.5"/>
<line class="st3" x1="804.7" y1="504" x2="804.7" y2="507.5"/>
<text transform="matrix(-6.123234e-17 -1 1 -6.123234e-17 808.0063 588.8428)" class="st4 st5">Rhode Island</text>
<line x1="829" y1="504" x2="829" y2="507.5"/>
<line class="st3" x1="829" y1="504" x2="829" y2="507.5"/>
<text transform="matrix(-6.123234e-17 -1 1 -6.123234e-17 832.3293 592.6562)" class="st4 st5">South Dakota</text>
<line x1="853.3" y1="504" x2="853.3" y2="507.5"/>
<line class="st3" x1="853.3" y1="504" x2="853.3" y2="507.5"/>
<text transform="matrix(-6.123234e-17 -1 1 -6.123234e-17 856.6524 575.5781)" class="st4 st5">Tennessee</text>
<line x1="877.7" y1="504" x2="877.7" y2="507.5"/>
<line class="st3" x1="877.7" y1="504" x2="877.7" y2="507.5"/>
<text transform="matrix(-6.123234e-17 -1 1 -6.123234e-17 880.9755 546.4072)" class="st4 st5">Texas</text>
<line x1="902" y1="504" x2="902" y2="507.5"/>
<line class="st3" x1="902" y1="504" x2="902" y2="507.5"/>
<text transform="matrix(-6.123234e-17 -1 1 -6.123234e-17 905.2986 539.4531)" class="st4 st5">Utah</text>
<line x1="926.3" y1="504" x2="926.3" y2="507.5"/>
<line class="st3" x1="926.3" y1="504" x2="926.3" y2="507.5"/>
<text transform="matrix(-6.123234e-17 -1 1 -6.123234e-17 929.6216 556.7178)" class="st4 st5">Virginia</text>
<line x1="950.6" y1="504" x2="950.6" y2="507.5"/>
<line class="st3" x1="950.6" y1="504" x2="950.6" y2="507.5"/>
<text transform="matrix(-6.123234e-17 -1 1 -6.123234e-17 953.9448 562.875)" class="st4 st5">Vermont</text>
<line x1="975" y1="504" x2="975" y2="507.5"/>
<line class="st3" x1="975" y1="504" x2="975" y2="507.5"/>
<text transform="matrix(-6.123234e-17 -1 1 -6.123234e-17 978.2678 582.2969)" class="st4 st5">Washington</text>
<line x1="999.3" y1="504" x2="999.3" y2="507.5"/>
<line class="st3" x1="999.3" y1="504" x2="999.3" y2="507.5"/>
<text transform="matrix(-6.123234e-17 -1 1 -6.123234e-17 1002.5909 571.1729)" class="st4 st5">Wisconsin</text>
<line x1="1023.6" y1="504" x2="1023.6" y2="507.5"/>
<line class="st3" x1="1023.6" y1="504" x2="1023.6" y2="507.5"/>
<text transform="matrix(-6.123234e-17 -1 1 -6.123234e-17 1026.9139 590.7344)" class="st4 st5">West Virginia</text>
<line x1="1047.9" y1="504" x2="1047.9" y2="507.5"/>
<line class="st3" x1="1047.9" y1="504" x2="1047.9" y2="507.5"/>
<text transform="matrix(-6.123234e-17 -1 1 -6.123234e-17 1051.2371 567.5615)" class="st4 st5">Wyoming</text>
<text transform="matrix(1 0 0 1 546.7546 634.5625)" class="st4 st6">State</text>
<line x1="111.5" y1="462.5" x2="108" y2="462.5"/>
<line class="st3" x1="111.5" y1="462.5" x2="108" y2="462.5"/>
<text transform="matrix(1 0 0 1 79.1423 467.0693)" class="st4 st5">−10</text>
<line x1="111.5" y1="391" x2="108" y2="391"/>
<line class="st3" x1="111.5" y1="391" x2="108" y2="391"/>
<text transform="matrix(1 0 0 1 86.7829 395.6045)" class="st4 st5">−5</text>
<line x1="111.5" y1="319.6" x2="108" y2="319.6"/>
<line class="st3" x1="111.5" y1="319.6" x2="108" y2="319.6"/>
<text transform="matrix(1 0 0 1 96.8454 324.1396)" class="st4 st5">0</text>
<line x1="111.5" y1="248.1" x2="108" y2="248.1"/>
<line class="st3" x1="111.5" y1="248.1" x2="108" y2="248.1"/>
<text transform="matrix(1 0 0 1 96.8454 252.6743)" class="st4 st5">5</text>
<line x1="111.5" y1="176.6" x2="108" y2="176.6"/>
<line class="st3" x1="111.5" y1="176.6" x2="108" y2="176.6"/>
<text transform="matrix(1 0 0 1 89.2048 181.209)" class="st4 st5">10</text>
<line x1="111.5" y1="105.2" x2="108" y2="105.2"/>
<line class="st3" x1="111.5" y1="105.2" x2="108" y2="105.2"/>
<text transform="matrix(1 0 0 1 89.2048 109.7437)" class="st4 st5">15</text>
<line class="st7" x1="111.5" y1="504" x2="111.5" y2="69.1"/>
<line class="st7" x1="1060.1" y1="504" x2="1060.1" y2="69.1"/>
<line class="st8" x1="111.5" y1="504" x2="1060.1" y2="504"/>
<line class="st7" x1="111.5" y1="69.1" x2="1060.1" y2="69.1"/>
<rect x="-41.5" class="st2" width="1224" height="576"/>
<text transform="matrix(4.489659e-11 -1 1 4.489659e-11 51.7546 425.5615)" class="st4 st6">Difference in Youth Voter Registration</text>
</svg>
