<?xml version="1.0" encoding="utf-8"?>
<!-- Generator: Adobe Illustrator 22.1.0, SVG Export Plug-In . SVG Version: 6.00 Build 0)  -->
<svg version="1.1" id="Layer_1" xmlns="http://www.w3.org/2000/svg" xmlns:xlink="http://www.w3.org/1999/xlink" x="0px" y="0px"
	 viewBox="0 0 776 1915.7" style="enable-background:new 0 0 776 1915.7;" xml:space="preserve">
<style type="text/css">
	.st0{fill:#FFFFFF;}
	.st1{clip-path:url(#SVGID_2_);fill:#696969;}
	.st2{clip-path:url(#SVGID_4_);fill:#696969;}
	.st3{clip-path:url(#SVGID_6_);fill:#696969;}
	.st4{clip-path:url(#SVGID_8_);fill:#696969;}
	.st5{clip-path:url(#SVGID_10_);fill:#696969;}
	.st6{clip-path:url(#SVGID_12_);fill:#696969;}
	.st7{clip-path:url(#SVGID_14_);fill:#696969;}
	.st8{clip-path:url(#SVGID_16_);fill:#696969;}
	.st9{clip-path:url(#SVGID_18_);fill:#696969;}
	.st10{clip-path:url(#SVGID_20_);fill:#696969;}
	.st11{clip-path:url(#SVGID_22_);fill:#696969;}
	.st12{clip-path:url(#SVGID_24_);fill:#696969;}
	.st13{clip-path:url(#SVGID_26_);fill:#696969;}
	.st14{clip-path:url(#SVGID_28_);fill:#696969;}
	.st15{clip-path:url(#SVGID_30_);fill:#696969;}
	.st16{clip-path:url(#SVGID_32_);fill:#696969;}
	.st17{clip-path:url(#SVGID_34_);fill:#696969;}
	.st18{clip-path:url(#SVGID_36_);fill:#696969;}
	.st19{clip-path:url(#SVGID_38_);fill:#696969;}
	.st20{clip-path:url(#SVGID_40_);fill:#696969;}
	.st21{clip-path:url(#SVGID_42_);fill:#696969;}
	.st22{clip-path:url(#SVGID_44_);fill:#696969;}
	.st23{clip-path:url(#SVGID_46_);fill:#696969;}
	.st24{clip-path:url(#SVGID_48_);fill:#696969;}
	.st25{clip-path:url(#SVGID_50_);fill:#696969;}
	.st26{clip-path:url(#SVGID_52_);fill:#696969;}
	.st27{clip-path:url(#SVGID_54_);fill:#696969;}
	.st28{clip-path:url(#SVGID_56_);fill:#696969;}
	.st29{clip-path:url(#SVGID_58_);fill:#696969;}
	.st30{clip-path:url(#SVGID_60_);fill:#696969;}
	.st31{clip-path:url(#SVGID_62_);fill:#696969;}
	.st32{clip-path:url(#SVGID_64_);fill:#696969;}
	.st33{clip-path:url(#SVGID_66_);fill:#696969;}
	.st34{clip-path:url(#SVGID_68_);fill:#696969;}
	.st35{clip-path:url(#SVGID_70_);fill:#696969;}
	.st36{clip-path:url(#SVGID_72_);fill:#696969;}
	.st37{clip-path:url(#SVGID_74_);fill:#696969;}
	.st38{clip-path:url(#SVGID_76_);fill:#696969;}
	.st39{clip-path:url(#SVGID_78_);fill:#696969;}
	.st40{clip-path:url(#SVGID_80_);fill:#696969;}
	.st41{clip-path:url(#SVGID_82_);fill:#696969;}
	.st42{clip-path:url(#SVGID_84_);fill:#696969;}
	.st43{clip-path:url(#SVGID_86_);fill:#696969;}
	.st44{clip-path:url(#SVGID_88_);fill:#696969;}
	.st45{clip-path:url(#SVGID_90_);fill:#696969;}
	.st46{clip-path:url(#SVGID_92_);fill:#696969;}
	.st47{clip-path:url(#SVGID_94_);fill:#696969;}
	.st48{clip-path:url(#SVGID_96_);fill:#696969;}
	.st49{clip-path:url(#SVGID_98_);fill:#B8B4CD;}
	.st50{clip-path:url(#SVGID_100_);fill:#B8B4CD;}
	.st51{clip-path:url(#SVGID_102_);fill:#B8B4CD;}
	.st52{clip-path:url(#SVGID_104_);fill:#B8B4CD;}
	.st53{clip-path:url(#SVGID_106_);fill:#B8B4CD;}
	.st54{clip-path:url(#SVGID_108_);fill:#B8B4CD;}
	.st55{clip-path:url(#SVGID_110_);fill:#B8B4CD;}
	.st56{clip-path:url(#SVGID_112_);fill:#B8B4CD;}
	.st57{clip-path:url(#SVGID_114_);fill:#B8B4CD;}
	.st58{clip-path:url(#SVGID_116_);fill:#B8B4CD;}
	.st59{clip-path:url(#SVGID_118_);fill:#B8B4CD;}
	.st60{clip-path:url(#SVGID_120_);fill:#B8B4CD;}
	.st61{clip-path:url(#SVGID_122_);fill:#B8B4CD;}
	.st62{clip-path:url(#SVGID_124_);fill:#B8B4CD;}
	.st63{clip-path:url(#SVGID_126_);fill:#B8B4CD;}
	.st64{clip-path:url(#SVGID_128_);fill:#B8B4CD;}
	.st65{clip-path:url(#SVGID_130_);fill:#B8B4CD;}
	.st66{clip-path:url(#SVGID_132_);fill:#B8B4CD;}
	.st67{clip-path:url(#SVGID_134_);fill:#B8B4CD;}
	.st68{clip-path:url(#SVGID_136_);fill:#B8B4CD;}
	.st69{clip-path:url(#SVGID_138_);fill:#B8B4CD;}
	.st70{clip-path:url(#SVGID_140_);fill:#B8B4CD;}
	.st71{clip-path:url(#SVGID_142_);fill:#B8B4CD;}
	.st72{clip-path:url(#SVGID_144_);fill:#B8B4CD;}
	.st73{clip-path:url(#SVGID_146_);fill:#B8B4CD;}
	.st74{clip-path:url(#SVGID_148_);fill:#B8B4CD;}
	.st75{clip-path:url(#SVGID_150_);fill:#B8B4CD;}
	.st76{clip-path:url(#SVGID_152_);fill:#B8B4CD;}
	.st77{clip-path:url(#SVGID_154_);fill:#B8B4CD;}
	.st78{clip-path:url(#SVGID_156_);fill:#B8B4CD;}
	.st79{clip-path:url(#SVGID_158_);fill:#B8B4CD;}
	.st80{clip-path:url(#SVGID_160_);fill:#B8B4CD;}
	.st81{clip-path:url(#SVGID_162_);fill:#B8B4CD;}
	.st82{clip-path:url(#SVGID_164_);fill:#B8B4CD;}
	.st83{clip-path:url(#SVGID_166_);fill:#B8B4CD;}
	.st84{clip-path:url(#SVGID_168_);fill:#B8B4CD;}
	.st85{clip-path:url(#SVGID_170_);fill:#B8B4CD;}
	.st86{clip-path:url(#SVGID_172_);fill:#B8B4CD;}
	.st87{clip-path:url(#SVGID_174_);fill:#B8B4CD;}
	.st88{clip-path:url(#SVGID_176_);fill:#B8B4CD;}
	.st89{clip-path:url(#SVGID_178_);fill:#CE4E44;}
	.st90{clip-path:url(#SVGID_180_);fill:#B8B4CD;}
	.st91{clip-path:url(#SVGID_182_);fill:#CE4E44;}
	.st92{clip-path:url(#SVGID_184_);fill:#CE4E44;}
	.st93{clip-path:url(#SVGID_186_);fill:#CE4E44;}
	.st94{clip-path:url(#SVGID_188_);fill:#CE4E44;}
	.st95{clip-path:url(#SVGID_190_);fill:#CE4E44;}
	.st96{clip-path:url(#SVGID_192_);fill:#CE4E44;}
	.st97{fill:none;stroke:#000000;stroke-width:0.8;stroke-linecap:square;stroke-miterlimit:10;}
	.st98{fill:none;stroke:#000000;stroke-width:0.8;stroke-linejoin:round;stroke-miterlimit:10;}
	.st99{font-family:'GillSans';}
	.st100{font-size:10px;}
	.st101{font-size:12px;}
	.st102{fill:none;}
	.st103{font-size:36px;}
	.st104{fill:#CE4E44;}
	.st105{fill:#696380;}
</style>
<g>
	<rect x="153.9" y="162.2" class="st0" width="558" height="1663.2"/>
	<g>
		<defs>
			<rect id="SVGID_1_" x="153.9" y="162.2" width="558" height="1663.2"/>
		</defs>
		<clipPath id="SVGID_2_">
			<use xlink:href="#SVGID_1_"  style="overflow:visible;"/>
		</clipPath>
		<rect x="153.9" y="1809.8" class="st1" width="202" height="6.9"/>
	</g>
	<g>
		<defs>
			<rect id="SVGID_3_" x="153.9" y="162.2" width="558" height="1663.2"/>
		</defs>
		<clipPath id="SVGID_4_">
			<use xlink:href="#SVGID_3_"  style="overflow:visible;"/>
		</clipPath>
		<rect x="153.9" y="1775.1" class="st2" width="172.6" height="6.9"/>
	</g>
	<g>
		<defs>
			<rect id="SVGID_5_" x="153.9" y="162.2" width="558" height="1663.2"/>
		</defs>
		<clipPath id="SVGID_6_">
			<use xlink:href="#SVGID_5_"  style="overflow:visible;"/>
		</clipPath>
		<rect x="153.9" y="1740.3" class="st3" width="169.2" height="6.9"/>
	</g>
	<g>
		<defs>
			<rect id="SVGID_7_" x="153.9" y="162.2" width="558" height="1663.2"/>
		</defs>
		<clipPath id="SVGID_8_">
			<use xlink:href="#SVGID_7_"  style="overflow:visible;"/>
		</clipPath>
		<rect x="153.9" y="1705.6" class="st4" width="192.9" height="6.9"/>
	</g>
	<g>
		<defs>
			<rect id="SVGID_9_" x="153.9" y="162.2" width="558" height="1663.2"/>
		</defs>
		<clipPath id="SVGID_10_">
			<use xlink:href="#SVGID_9_"  style="overflow:visible;"/>
		</clipPath>
		<rect x="153.9" y="1670.9" class="st5" width="184.7" height="6.9"/>
	</g>
	<g>
		<defs>
			<rect id="SVGID_11_" x="153.9" y="162.2" width="558" height="1663.2"/>
		</defs>
		<clipPath id="SVGID_12_">
			<use xlink:href="#SVGID_11_"  style="overflow:visible;"/>
		</clipPath>
		<rect x="153.9" y="1636.2" class="st6" width="171.4" height="6.9"/>
	</g>
	<g>
		<defs>
			<rect id="SVGID_13_" x="153.9" y="162.2" width="558" height="1663.2"/>
		</defs>
		<clipPath id="SVGID_14_">
			<use xlink:href="#SVGID_13_"  style="overflow:visible;"/>
		</clipPath>
		<rect x="153.9" y="1601.4" class="st7" width="184.4" height="6.9"/>
	</g>
	<g>
		<defs>
			<rect id="SVGID_15_" x="153.9" y="162.2" width="558" height="1663.2"/>
		</defs>
		<clipPath id="SVGID_16_">
			<use xlink:href="#SVGID_15_"  style="overflow:visible;"/>
		</clipPath>
		<rect x="153.9" y="1566.7" class="st8" width="187.8" height="6.9"/>
	</g>
	<g>
		<defs>
			<rect id="SVGID_17_" x="153.9" y="162.2" width="558" height="1663.2"/>
		</defs>
		<clipPath id="SVGID_18_">
			<use xlink:href="#SVGID_17_"  style="overflow:visible;"/>
		</clipPath>
		<rect x="153.9" y="1532" class="st9" width="183.6" height="6.9"/>
	</g>
	<g>
		<defs>
			<rect id="SVGID_19_" x="153.9" y="162.2" width="558" height="1663.2"/>
		</defs>
		<clipPath id="SVGID_20_">
			<use xlink:href="#SVGID_19_"  style="overflow:visible;"/>
		</clipPath>
		<rect x="153.9" y="1497.3" class="st10" width="225.7" height="6.9"/>
	</g>
	<g>
		<defs>
			<rect id="SVGID_21_" x="153.9" y="162.2" width="558" height="1663.2"/>
		</defs>
		<clipPath id="SVGID_22_">
			<use xlink:href="#SVGID_21_"  style="overflow:visible;"/>
		</clipPath>
		<rect x="153.9" y="1462.6" class="st11" width="199.7" height="6.9"/>
	</g>
	<g>
		<defs>
			<rect id="SVGID_23_" x="153.9" y="162.2" width="558" height="1663.2"/>
		</defs>
		<clipPath id="SVGID_24_">
			<use xlink:href="#SVGID_23_"  style="overflow:visible;"/>
		</clipPath>
		<rect x="153.9" y="1427.8" class="st12" width="187.3" height="6.9"/>
	</g>
	<g>
		<defs>
			<rect id="SVGID_25_" x="153.9" y="162.2" width="558" height="1663.2"/>
		</defs>
		<clipPath id="SVGID_26_">
			<use xlink:href="#SVGID_25_"  style="overflow:visible;"/>
		</clipPath>
		<rect x="153.9" y="1393.1" class="st13" width="211.9" height="6.9"/>
	</g>
	<g>
		<defs>
			<rect id="SVGID_27_" x="153.9" y="162.2" width="558" height="1663.2"/>
		</defs>
		<clipPath id="SVGID_28_">
			<use xlink:href="#SVGID_27_"  style="overflow:visible;"/>
		</clipPath>
		<rect x="153.9" y="1358.4" class="st14" width="203.7" height="6.9"/>
	</g>
	<g>
		<defs>
			<rect id="SVGID_29_" x="153.9" y="162.2" width="558" height="1663.2"/>
		</defs>
		<clipPath id="SVGID_30_">
			<use xlink:href="#SVGID_29_"  style="overflow:visible;"/>
		</clipPath>
		<rect x="153.9" y="1323.7" class="st15" width="202" height="6.9"/>
	</g>
	<g>
		<defs>
			<rect id="SVGID_31_" x="153.9" y="162.2" width="558" height="1663.2"/>
		</defs>
		<clipPath id="SVGID_32_">
			<use xlink:href="#SVGID_31_"  style="overflow:visible;"/>
		</clipPath>
		<rect x="153.9" y="1288.9" class="st16" width="181.9" height="6.9"/>
	</g>
	<g>
		<defs>
			<rect id="SVGID_33_" x="153.9" y="162.2" width="558" height="1663.2"/>
		</defs>
		<clipPath id="SVGID_34_">
			<use xlink:href="#SVGID_33_"  style="overflow:visible;"/>
		</clipPath>
		<rect x="153.9" y="1254.2" class="st17" width="151.6" height="6.9"/>
	</g>
	<g>
		<defs>
			<rect id="SVGID_35_" x="153.9" y="162.2" width="558" height="1663.2"/>
		</defs>
		<clipPath id="SVGID_36_">
			<use xlink:href="#SVGID_35_"  style="overflow:visible;"/>
		</clipPath>
		<rect x="153.9" y="1219.5" class="st18" width="219.8" height="6.9"/>
	</g>
	<g>
		<defs>
			<rect id="SVGID_37_" x="153.9" y="162.2" width="558" height="1663.2"/>
		</defs>
		<clipPath id="SVGID_38_">
			<use xlink:href="#SVGID_37_"  style="overflow:visible;"/>
		</clipPath>
		<rect x="153.9" y="1184.8" class="st19" width="186.7" height="6.9"/>
	</g>
	<g>
		<defs>
			<rect id="SVGID_39_" x="153.9" y="162.2" width="558" height="1663.2"/>
		</defs>
		<clipPath id="SVGID_40_">
			<use xlink:href="#SVGID_39_"  style="overflow:visible;"/>
		</clipPath>
		<rect x="153.9" y="1150.1" class="st20" width="224.9" height="6.9"/>
	</g>
	<g>
		<defs>
			<rect id="SVGID_41_" x="153.9" y="162.2" width="558" height="1663.2"/>
		</defs>
		<clipPath id="SVGID_42_">
			<use xlink:href="#SVGID_41_"  style="overflow:visible;"/>
		</clipPath>
		<rect x="153.9" y="1115.3" class="st21" width="197.2" height="6.9"/>
	</g>
	<g>
		<defs>
			<rect id="SVGID_43_" x="153.9" y="162.2" width="558" height="1663.2"/>
		</defs>
		<clipPath id="SVGID_44_">
			<use xlink:href="#SVGID_43_"  style="overflow:visible;"/>
		</clipPath>
		<rect x="153.9" y="1080.6" class="st22" width="202" height="6.9"/>
	</g>
	<g>
		<defs>
			<rect id="SVGID_45_" x="153.9" y="162.2" width="558" height="1663.2"/>
		</defs>
		<clipPath id="SVGID_46_">
			<use xlink:href="#SVGID_45_"  style="overflow:visible;"/>
		</clipPath>
		<rect x="153.9" y="1045.9" class="st23" width="181.6" height="6.9"/>
	</g>
	<g>
		<defs>
			<rect id="SVGID_47_" x="153.9" y="162.2" width="558" height="1663.2"/>
		</defs>
		<clipPath id="SVGID_48_">
			<use xlink:href="#SVGID_47_"  style="overflow:visible;"/>
		</clipPath>
		<rect x="153.9" y="1011.2" class="st24" width="243" height="6.9"/>
	</g>
	<g>
		<defs>
			<rect id="SVGID_49_" x="153.9" y="162.2" width="558" height="1663.2"/>
		</defs>
		<clipPath id="SVGID_50_">
			<use xlink:href="#SVGID_49_"  style="overflow:visible;"/>
		</clipPath>
		<rect x="153.9" y="976.4" class="st25" width="156.4" height="6.9"/>
	</g>
	<g>
		<defs>
			<rect id="SVGID_51_" x="153.9" y="162.2" width="558" height="1663.2"/>
		</defs>
		<clipPath id="SVGID_52_">
			<use xlink:href="#SVGID_51_"  style="overflow:visible;"/>
		</clipPath>
		<rect x="153.9" y="941.7" class="st26" width="212.2" height="6.9"/>
	</g>
	<g>
		<defs>
			<rect id="SVGID_53_" x="153.9" y="162.2" width="558" height="1663.2"/>
		</defs>
		<clipPath id="SVGID_54_">
			<use xlink:href="#SVGID_53_"  style="overflow:visible;"/>
		</clipPath>
		<rect x="153.9" y="907" class="st27" width="213" height="6.9"/>
	</g>
	<g>
		<defs>
			<rect id="SVGID_55_" x="153.9" y="162.2" width="558" height="1663.2"/>
		</defs>
		<clipPath id="SVGID_56_">
			<use xlink:href="#SVGID_55_"  style="overflow:visible;"/>
		</clipPath>
		<rect x="153.9" y="872.3" class="st28" width="205.9" height="6.9"/>
	</g>
	<g>
		<defs>
			<rect id="SVGID_57_" x="153.9" y="162.2" width="558" height="1663.2"/>
		</defs>
		<clipPath id="SVGID_58_">
			<use xlink:href="#SVGID_57_"  style="overflow:visible;"/>
		</clipPath>
		<rect x="153.9" y="837.5" class="st29" width="205.4" height="6.9"/>
	</g>
	<g>
		<defs>
			<rect id="SVGID_59_" x="153.9" y="162.2" width="558" height="1663.2"/>
		</defs>
		<clipPath id="SVGID_60_">
			<use xlink:href="#SVGID_59_"  style="overflow:visible;"/>
		</clipPath>
		<rect x="153.9" y="802.8" class="st30" width="235.1" height="6.9"/>
	</g>
	<g>
		<defs>
			<rect id="SVGID_61_" x="153.9" y="162.2" width="558" height="1663.2"/>
		</defs>
		<clipPath id="SVGID_62_">
			<use xlink:href="#SVGID_61_"  style="overflow:visible;"/>
		</clipPath>
		<rect x="153.9" y="768.1" class="st31" width="209.3" height="6.9"/>
	</g>
	<g>
		<defs>
			<rect id="SVGID_63_" x="153.9" y="162.2" width="558" height="1663.2"/>
		</defs>
		<clipPath id="SVGID_64_">
			<use xlink:href="#SVGID_63_"  style="overflow:visible;"/>
		</clipPath>
		<rect x="153.9" y="733.4" class="st32" width="190.9" height="6.9"/>
	</g>
	<g>
		<defs>
			<rect id="SVGID_65_" x="153.9" y="162.2" width="558" height="1663.2"/>
		</defs>
		<clipPath id="SVGID_66_">
			<use xlink:href="#SVGID_65_"  style="overflow:visible;"/>
		</clipPath>
		<rect x="153.9" y="698.7" class="st33" width="198" height="6.9"/>
	</g>
	<g>
		<defs>
			<rect id="SVGID_67_" x="153.9" y="162.2" width="558" height="1663.2"/>
		</defs>
		<clipPath id="SVGID_68_">
			<use xlink:href="#SVGID_67_"  style="overflow:visible;"/>
		</clipPath>
		<rect x="153.9" y="663.9" class="st34" width="190.1" height="6.9"/>
	</g>
	<g>
		<defs>
			<rect id="SVGID_69_" x="153.9" y="162.2" width="558" height="1663.2"/>
		</defs>
		<clipPath id="SVGID_70_">
			<use xlink:href="#SVGID_69_"  style="overflow:visible;"/>
		</clipPath>
		<rect x="153.9" y="629.2" class="st35" width="199.1" height="6.9"/>
	</g>
	<g>
		<defs>
			<rect id="SVGID_71_" x="153.9" y="162.2" width="558" height="1663.2"/>
		</defs>
		<clipPath id="SVGID_72_">
			<use xlink:href="#SVGID_71_"  style="overflow:visible;"/>
		</clipPath>
		<rect x="153.9" y="594.5" class="st36" width="188.4" height="6.9"/>
	</g>
	<g>
		<defs>
			<rect id="SVGID_73_" x="153.9" y="162.2" width="558" height="1663.2"/>
		</defs>
		<clipPath id="SVGID_74_">
			<use xlink:href="#SVGID_73_"  style="overflow:visible;"/>
		</clipPath>
		<rect x="153.9" y="559.8" class="st37" width="184.2" height="6.9"/>
	</g>
	<g>
		<defs>
			<rect id="SVGID_75_" x="153.9" y="162.2" width="558" height="1663.2"/>
		</defs>
		<clipPath id="SVGID_76_">
			<use xlink:href="#SVGID_75_"  style="overflow:visible;"/>
		</clipPath>
		<rect x="153.9" y="525" class="st38" width="183.9" height="6.9"/>
	</g>
	<g>
		<defs>
			<rect id="SVGID_77_" x="153.9" y="162.2" width="558" height="1663.2"/>
		</defs>
		<clipPath id="SVGID_78_">
			<use xlink:href="#SVGID_77_"  style="overflow:visible;"/>
		</clipPath>
		<rect x="153.9" y="490.3" class="st39" width="205.1" height="6.9"/>
	</g>
	<g>
		<defs>
			<rect id="SVGID_79_" x="153.9" y="162.2" width="558" height="1663.2"/>
		</defs>
		<clipPath id="SVGID_80_">
			<use xlink:href="#SVGID_79_"  style="overflow:visible;"/>
		</clipPath>
		<rect x="153.9" y="455.6" class="st40" width="196" height="6.9"/>
	</g>
	<g>
		<defs>
			<rect id="SVGID_81_" x="153.9" y="162.2" width="558" height="1663.2"/>
		</defs>
		<clipPath id="SVGID_82_">
			<use xlink:href="#SVGID_81_"  style="overflow:visible;"/>
		</clipPath>
		<rect x="153.9" y="420.9" class="st41" width="184.7" height="6.9"/>
	</g>
	<g>
		<defs>
			<rect id="SVGID_83_" x="153.9" y="162.2" width="558" height="1663.2"/>
		</defs>
		<clipPath id="SVGID_84_">
			<use xlink:href="#SVGID_83_"  style="overflow:visible;"/>
		</clipPath>
		<rect x="153.9" y="386.2" class="st42" width="213" height="6.9"/>
	</g>
	<g>
		<defs>
			<rect id="SVGID_85_" x="153.9" y="162.2" width="558" height="1663.2"/>
		</defs>
		<clipPath id="SVGID_86_">
			<use xlink:href="#SVGID_85_"  style="overflow:visible;"/>
		</clipPath>
		<rect x="153.9" y="351.4" class="st43" width="214.7" height="6.9"/>
	</g>
	<g>
		<defs>
			<rect id="SVGID_87_" x="153.9" y="162.2" width="558" height="1663.2"/>
		</defs>
		<clipPath id="SVGID_88_">
			<use xlink:href="#SVGID_87_"  style="overflow:visible;"/>
		</clipPath>
		<rect x="153.9" y="316.7" class="st44" width="226" height="6.9"/>
	</g>
	<g>
		<defs>
			<rect id="SVGID_89_" x="153.9" y="162.2" width="558" height="1663.2"/>
		</defs>
		<clipPath id="SVGID_90_">
			<use xlink:href="#SVGID_89_"  style="overflow:visible;"/>
		</clipPath>
		<rect x="153.9" y="282" class="st45" width="210.7" height="6.9"/>
	</g>
	<g>
		<defs>
			<rect id="SVGID_91_" x="153.9" y="162.2" width="558" height="1663.2"/>
		</defs>
		<clipPath id="SVGID_92_">
			<use xlink:href="#SVGID_91_"  style="overflow:visible;"/>
		</clipPath>
		<rect x="153.9" y="247.3" class="st46" width="221.2" height="6.9"/>
	</g>
	<g>
		<defs>
			<rect id="SVGID_93_" x="153.9" y="162.2" width="558" height="1663.2"/>
		</defs>
		<clipPath id="SVGID_94_">
			<use xlink:href="#SVGID_93_"  style="overflow:visible;"/>
		</clipPath>
		<rect x="153.9" y="212.5" class="st47" width="213.3" height="6.9"/>
	</g>
	<g>
		<defs>
			<rect id="SVGID_95_" x="153.9" y="162.2" width="558" height="1663.2"/>
		</defs>
		<clipPath id="SVGID_96_">
			<use xlink:href="#SVGID_95_"  style="overflow:visible;"/>
		</clipPath>
		<rect x="153.9" y="177.8" class="st48" width="165.2" height="6.9"/>
	</g>
	<g>
		<defs>
			<rect id="SVGID_97_" x="153.9" y="162.2" width="558" height="1663.2"/>
		</defs>
		<clipPath id="SVGID_98_">
			<use xlink:href="#SVGID_97_"  style="overflow:visible;"/>
		</clipPath>
		<rect x="153.9" y="1802.8" class="st49" width="20.8" height="6.9"/>
	</g>
	<g>
		<defs>
			<rect id="SVGID_99_" x="153.9" y="162.2" width="558" height="1663.2"/>
		</defs>
		<clipPath id="SVGID_100_">
			<use xlink:href="#SVGID_99_"  style="overflow:visible;"/>
		</clipPath>
		<rect x="153.9" y="1768.1" class="st50" width="21" height="6.9"/>
	</g>
	<g>
		<defs>
			<rect id="SVGID_101_" x="153.9" y="162.2" width="558" height="1663.2"/>
		</defs>
		<clipPath id="SVGID_102_">
			<use xlink:href="#SVGID_101_"  style="overflow:visible;"/>
		</clipPath>
		<rect x="153.9" y="1733.4" class="st51" width="30.5" height="6.9"/>
	</g>
	<g>
		<defs>
			<rect id="SVGID_103_" x="153.9" y="162.2" width="558" height="1663.2"/>
		</defs>
		<clipPath id="SVGID_104_">
			<use xlink:href="#SVGID_103_"  style="overflow:visible;"/>
		</clipPath>
		<rect x="153.9" y="1698.7" class="st52" width="32.3" height="6.9"/>
	</g>
	<g>
		<defs>
			<rect id="SVGID_105_" x="153.9" y="162.2" width="558" height="1663.2"/>
		</defs>
		<clipPath id="SVGID_106_">
			<use xlink:href="#SVGID_105_"  style="overflow:visible;"/>
		</clipPath>
		<rect x="153.9" y="1663.9" class="st53" width="36.8" height="6.9"/>
	</g>
	<g>
		<defs>
			<rect id="SVGID_107_" x="153.9" y="162.2" width="558" height="1663.2"/>
		</defs>
		<clipPath id="SVGID_108_">
			<use xlink:href="#SVGID_107_"  style="overflow:visible;"/>
		</clipPath>
		<rect x="153.9" y="1629.2" class="st54" width="37.2" height="6.9"/>
	</g>
	<g>
		<defs>
			<rect id="SVGID_109_" x="153.9" y="162.2" width="558" height="1663.2"/>
		</defs>
		<clipPath id="SVGID_110_">
			<use xlink:href="#SVGID_109_"  style="overflow:visible;"/>
		</clipPath>
		<rect x="153.9" y="1594.5" class="st55" width="37.2" height="6.9"/>
	</g>
	<g>
		<defs>
			<rect id="SVGID_111_" x="153.9" y="162.2" width="558" height="1663.2"/>
		</defs>
		<clipPath id="SVGID_112_">
			<use xlink:href="#SVGID_111_"  style="overflow:visible;"/>
		</clipPath>
		<rect x="153.9" y="1559.8" class="st56" width="45" height="6.9"/>
	</g>
	<g>
		<defs>
			<rect id="SVGID_113_" x="153.9" y="162.2" width="558" height="1663.2"/>
		</defs>
		<clipPath id="SVGID_114_">
			<use xlink:href="#SVGID_113_"  style="overflow:visible;"/>
		</clipPath>
		<rect x="153.9" y="1525.1" class="st57" width="48.8" height="6.9"/>
	</g>
	<g>
		<defs>
			<rect id="SVGID_115_" x="153.9" y="162.2" width="558" height="1663.2"/>
		</defs>
		<clipPath id="SVGID_116_">
			<use xlink:href="#SVGID_115_"  style="overflow:visible;"/>
		</clipPath>
		<rect x="153.9" y="1490.3" class="st58" width="54.8" height="6.9"/>
	</g>
	<g>
		<defs>
			<rect id="SVGID_117_" x="153.9" y="162.2" width="558" height="1663.2"/>
		</defs>
		<clipPath id="SVGID_118_">
			<use xlink:href="#SVGID_117_"  style="overflow:visible;"/>
		</clipPath>
		<rect x="153.9" y="1455.6" class="st59" width="57.1" height="6.9"/>
	</g>
	<g>
		<defs>
			<rect id="SVGID_119_" x="153.9" y="162.2" width="558" height="1663.2"/>
		</defs>
		<clipPath id="SVGID_120_">
			<use xlink:href="#SVGID_119_"  style="overflow:visible;"/>
		</clipPath>
		<rect x="153.9" y="1420.9" class="st60" width="59.8" height="6.9"/>
	</g>
	<g>
		<defs>
			<rect id="SVGID_121_" x="153.9" y="162.2" width="558" height="1663.2"/>
		</defs>
		<clipPath id="SVGID_122_">
			<use xlink:href="#SVGID_121_"  style="overflow:visible;"/>
		</clipPath>
		<rect x="153.9" y="1386.2" class="st61" width="61.4" height="6.9"/>
	</g>
	<g>
		<defs>
			<rect id="SVGID_123_" x="153.9" y="162.2" width="558" height="1663.2"/>
		</defs>
		<clipPath id="SVGID_124_">
			<use xlink:href="#SVGID_123_"  style="overflow:visible;"/>
		</clipPath>
		<rect x="153.9" y="1351.4" class="st62" width="64.1" height="6.9"/>
	</g>
	<g>
		<defs>
			<rect id="SVGID_125_" x="153.9" y="162.2" width="558" height="1663.2"/>
		</defs>
		<clipPath id="SVGID_126_">
			<use xlink:href="#SVGID_125_"  style="overflow:visible;"/>
		</clipPath>
		<rect x="153.9" y="1316.7" class="st63" width="65.2" height="6.9"/>
	</g>
	<g>
		<defs>
			<rect id="SVGID_127_" x="153.9" y="162.2" width="558" height="1663.2"/>
		</defs>
		<clipPath id="SVGID_128_">
			<use xlink:href="#SVGID_127_"  style="overflow:visible;"/>
		</clipPath>
		<rect x="153.9" y="1282" class="st64" width="67.7" height="6.9"/>
	</g>
	<g>
		<defs>
			<rect id="SVGID_129_" x="153.9" y="162.2" width="558" height="1663.2"/>
		</defs>
		<clipPath id="SVGID_130_">
			<use xlink:href="#SVGID_129_"  style="overflow:visible;"/>
		</clipPath>
		<rect x="153.9" y="1247.3" class="st65" width="73.8" height="6.9"/>
	</g>
	<g>
		<defs>
			<rect id="SVGID_131_" x="153.9" y="162.2" width="558" height="1663.2"/>
		</defs>
		<clipPath id="SVGID_132_">
			<use xlink:href="#SVGID_131_"  style="overflow:visible;"/>
		</clipPath>
		<rect x="153.9" y="1212.6" class="st66" width="76.1" height="6.9"/>
	</g>
	<g>
		<defs>
			<rect id="SVGID_133_" x="153.9" y="162.2" width="558" height="1663.2"/>
		</defs>
		<clipPath id="SVGID_134_">
			<use xlink:href="#SVGID_133_"  style="overflow:visible;"/>
		</clipPath>
		<rect x="153.9" y="1177.8" class="st67" width="76.2" height="6.9"/>
	</g>
	<g>
		<defs>
			<rect id="SVGID_135_" x="153.9" y="162.2" width="558" height="1663.2"/>
		</defs>
		<clipPath id="SVGID_136_">
			<use xlink:href="#SVGID_135_"  style="overflow:visible;"/>
		</clipPath>
		<rect x="153.9" y="1143.1" class="st68" width="85.3" height="6.9"/>
	</g>
	<g>
		<defs>
			<rect id="SVGID_137_" x="153.9" y="162.2" width="558" height="1663.2"/>
		</defs>
		<clipPath id="SVGID_138_">
			<use xlink:href="#SVGID_137_"  style="overflow:visible;"/>
		</clipPath>
		<rect x="153.9" y="1108.4" class="st69" width="93" height="6.9"/>
	</g>
	<g>
		<defs>
			<rect id="SVGID_139_" x="153.9" y="162.2" width="558" height="1663.2"/>
		</defs>
		<clipPath id="SVGID_140_">
			<use xlink:href="#SVGID_139_"  style="overflow:visible;"/>
		</clipPath>
		<rect x="153.9" y="1073.7" class="st70" width="93.9" height="6.9"/>
	</g>
	<g>
		<defs>
			<rect id="SVGID_141_" x="153.9" y="162.2" width="558" height="1663.2"/>
		</defs>
		<clipPath id="SVGID_142_">
			<use xlink:href="#SVGID_141_"  style="overflow:visible;"/>
		</clipPath>
		<rect x="153.9" y="1038.9" class="st71" width="100.7" height="6.9"/>
	</g>
	<g>
		<defs>
			<rect id="SVGID_143_" x="153.9" y="162.2" width="558" height="1663.2"/>
		</defs>
		<clipPath id="SVGID_144_">
			<use xlink:href="#SVGID_143_"  style="overflow:visible;"/>
		</clipPath>
		<rect x="153.9" y="1004.2" class="st72" width="101.9" height="6.9"/>
	</g>
	<g>
		<defs>
			<rect id="SVGID_145_" x="153.9" y="162.2" width="558" height="1663.2"/>
		</defs>
		<clipPath id="SVGID_146_">
			<use xlink:href="#SVGID_145_"  style="overflow:visible;"/>
		</clipPath>
		<rect x="153.9" y="969.5" class="st73" width="103.1" height="6.9"/>
	</g>
	<g>
		<defs>
			<rect id="SVGID_147_" x="153.9" y="162.2" width="558" height="1663.2"/>
		</defs>
		<clipPath id="SVGID_148_">
			<use xlink:href="#SVGID_147_"  style="overflow:visible;"/>
		</clipPath>
		<rect x="153.9" y="934.8" class="st74" width="104" height="6.9"/>
	</g>
	<g>
		<defs>
			<rect id="SVGID_149_" x="153.9" y="162.2" width="558" height="1663.2"/>
		</defs>
		<clipPath id="SVGID_150_">
			<use xlink:href="#SVGID_149_"  style="overflow:visible;"/>
		</clipPath>
		<rect x="153.9" y="900" class="st75" width="114.8" height="6.9"/>
	</g>
	<g>
		<defs>
			<rect id="SVGID_151_" x="153.9" y="162.2" width="558" height="1663.2"/>
		</defs>
		<clipPath id="SVGID_152_">
			<use xlink:href="#SVGID_151_"  style="overflow:visible;"/>
		</clipPath>
		<rect x="153.9" y="865.3" class="st76" width="119.7" height="6.9"/>
	</g>
	<g>
		<defs>
			<rect id="SVGID_153_" x="153.9" y="162.2" width="558" height="1663.2"/>
		</defs>
		<clipPath id="SVGID_154_">
			<use xlink:href="#SVGID_153_"  style="overflow:visible;"/>
		</clipPath>
		<rect x="153.9" y="830.6" class="st77" width="119.7" height="6.9"/>
	</g>
	<g>
		<defs>
			<rect id="SVGID_155_" x="153.9" y="162.2" width="558" height="1663.2"/>
		</defs>
		<clipPath id="SVGID_156_">
			<use xlink:href="#SVGID_155_"  style="overflow:visible;"/>
		</clipPath>
		<rect x="153.9" y="795.9" class="st78" width="123" height="6.9"/>
	</g>
	<g>
		<defs>
			<rect id="SVGID_157_" x="153.9" y="162.2" width="558" height="1663.2"/>
		</defs>
		<clipPath id="SVGID_158_">
			<use xlink:href="#SVGID_157_"  style="overflow:visible;"/>
		</clipPath>
		<rect x="153.9" y="761.2" class="st79" width="133.2" height="6.9"/>
	</g>
	<g>
		<defs>
			<rect id="SVGID_159_" x="153.9" y="162.2" width="558" height="1663.2"/>
		</defs>
		<clipPath id="SVGID_160_">
			<use xlink:href="#SVGID_159_"  style="overflow:visible;"/>
		</clipPath>
		<rect x="153.9" y="726.4" class="st80" width="133.7" height="6.9"/>
	</g>
	<g>
		<defs>
			<rect id="SVGID_161_" x="153.9" y="162.2" width="558" height="1663.2"/>
		</defs>
		<clipPath id="SVGID_162_">
			<use xlink:href="#SVGID_161_"  style="overflow:visible;"/>
		</clipPath>
		<rect x="153.9" y="691.7" class="st81" width="134.4" height="6.9"/>
	</g>
	<g>
		<defs>
			<rect id="SVGID_163_" x="153.9" y="162.2" width="558" height="1663.2"/>
		</defs>
		<clipPath id="SVGID_164_">
			<use xlink:href="#SVGID_163_"  style="overflow:visible;"/>
		</clipPath>
		<rect x="153.9" y="657" class="st82" width="135.7" height="6.9"/>
	</g>
	<g>
		<defs>
			<rect id="SVGID_165_" x="153.9" y="162.2" width="558" height="1663.2"/>
		</defs>
		<clipPath id="SVGID_166_">
			<use xlink:href="#SVGID_165_"  style="overflow:visible;"/>
		</clipPath>
		<rect x="153.9" y="622.3" class="st83" width="137.9" height="6.9"/>
	</g>
	<g>
		<defs>
			<rect id="SVGID_167_" x="153.9" y="162.2" width="558" height="1663.2"/>
		</defs>
		<clipPath id="SVGID_168_">
			<use xlink:href="#SVGID_167_"  style="overflow:visible;"/>
		</clipPath>
		<rect x="153.9" y="587.5" class="st84" width="140" height="6.9"/>
	</g>
	<g>
		<defs>
			<rect id="SVGID_169_" x="153.9" y="162.2" width="558" height="1663.2"/>
		</defs>
		<clipPath id="SVGID_170_">
			<use xlink:href="#SVGID_169_"  style="overflow:visible;"/>
		</clipPath>
		<rect x="153.9" y="552.8" class="st85" width="145.7" height="6.9"/>
	</g>
	<g>
		<defs>
			<rect id="SVGID_171_" x="153.9" y="162.2" width="558" height="1663.2"/>
		</defs>
		<clipPath id="SVGID_172_">
			<use xlink:href="#SVGID_171_"  style="overflow:visible;"/>
		</clipPath>
		<rect x="153.9" y="518.1" class="st86" width="146.3" height="6.9"/>
	</g>
	<g>
		<defs>
			<rect id="SVGID_173_" x="153.9" y="162.2" width="558" height="1663.2"/>
		</defs>
		<clipPath id="SVGID_174_">
			<use xlink:href="#SVGID_173_"  style="overflow:visible;"/>
		</clipPath>
		<rect x="153.9" y="483.4" class="st87" width="168.9" height="6.9"/>
	</g>
	<g>
		<defs>
			<rect id="SVGID_175_" x="153.9" y="162.2" width="558" height="1663.2"/>
		</defs>
		<clipPath id="SVGID_176_">
			<use xlink:href="#SVGID_175_"  style="overflow:visible;"/>
		</clipPath>
		<rect x="153.9" y="448.7" class="st88" width="186.1" height="6.9"/>
	</g>
	<g>
		<defs>
			<rect id="SVGID_177_" x="153.9" y="162.2" width="558" height="1663.2"/>
		</defs>
		<clipPath id="SVGID_178_">
			<use xlink:href="#SVGID_177_"  style="overflow:visible;"/>
		</clipPath>
		<rect x="153.9" y="413.9" class="st89" width="194.8" height="6.9"/>
	</g>
	<g>
		<defs>
			<rect id="SVGID_179_" x="153.9" y="162.2" width="558" height="1663.2"/>
		</defs>
		<clipPath id="SVGID_180_">
			<use xlink:href="#SVGID_179_"  style="overflow:visible;"/>
		</clipPath>
		<rect x="153.9" y="379.2" class="st90" width="208.5" height="6.9"/>
	</g>
	<g>
		<defs>
			<rect id="SVGID_181_" x="153.9" y="162.2" width="558" height="1663.2"/>
		</defs>
		<clipPath id="SVGID_182_">
			<use xlink:href="#SVGID_181_"  style="overflow:visible;"/>
		</clipPath>
		<rect x="153.9" y="344.5" class="st91" width="220.6" height="6.9"/>
	</g>
	<g>
		<defs>
			<rect id="SVGID_183_" x="153.9" y="162.2" width="558" height="1663.2"/>
		</defs>
		<clipPath id="SVGID_184_">
			<use xlink:href="#SVGID_183_"  style="overflow:visible;"/>
		</clipPath>
		<rect x="153.9" y="309.8" class="st92" width="236.7" height="6.9"/>
	</g>
	<g>
		<defs>
			<rect id="SVGID_185_" x="153.9" y="162.2" width="558" height="1663.2"/>
		</defs>
		<clipPath id="SVGID_186_">
			<use xlink:href="#SVGID_185_"  style="overflow:visible;"/>
		</clipPath>
		<rect x="153.9" y="275" class="st93" width="240" height="6.9"/>
	</g>
	<g>
		<defs>
			<rect id="SVGID_187_" x="153.9" y="162.2" width="558" height="1663.2"/>
		</defs>
		<clipPath id="SVGID_188_">
			<use xlink:href="#SVGID_187_"  style="overflow:visible;"/>
		</clipPath>
		<rect x="153.9" y="240.3" class="st94" width="282.2" height="6.9"/>
	</g>
	<g>
		<defs>
			<rect id="SVGID_189_" x="153.9" y="162.2" width="558" height="1663.2"/>
		</defs>
		<clipPath id="SVGID_190_">
			<use xlink:href="#SVGID_189_"  style="overflow:visible;"/>
		</clipPath>
		<rect x="153.9" y="205.6" class="st95" width="361.8" height="6.9"/>
	</g>
	<g>
		<defs>
			<rect id="SVGID_191_" x="153.9" y="162.2" width="558" height="1663.2"/>
		</defs>
		<clipPath id="SVGID_192_">
			<use xlink:href="#SVGID_191_"  style="overflow:visible;"/>
		</clipPath>
		<rect x="153.9" y="170.9" class="st96" width="531.4" height="6.9"/>
	</g>
	<line class="st97" x1="153.9" y1="1825.4" x2="153.9" y2="162.2"/>
	<line x1="153.9" y1="1822.4" x2="153.9" y2="1825.9"/>
	<line class="st98" x1="153.9" y1="1822.4" x2="153.9" y2="1825.9"/>
	<text transform="matrix(1 0 0 1 145.9624 1836.9941)" class="st99 st100">0.0</text>
	<line x1="224.6" y1="1822.4" x2="224.6" y2="1825.9"/>
	<line class="st98" x1="224.6" y1="1822.4" x2="224.6" y2="1825.9"/>
	<text transform="matrix(1 0 0 1 216.6831 1836.9941)" class="st99 st100">2.5</text>
	<line x1="295.4" y1="1822.4" x2="295.4" y2="1825.9"/>
	<line class="st98" x1="295.4" y1="1822.4" x2="295.4" y2="1825.9"/>
	<text transform="matrix(1 0 0 1 287.4033 1836.9941)" class="st99 st100">5.0</text>
	<line x1="366.1" y1="1822.4" x2="366.1" y2="1825.9"/>
	<line class="st98" x1="366.1" y1="1822.4" x2="366.1" y2="1825.9"/>
	<text transform="matrix(1 0 0 1 358.124 1836.9941)" class="st99 st100">7.5</text>
	<line x1="436.8" y1="1822.4" x2="436.8" y2="1825.9"/>
	<line class="st98" x1="436.8" y1="1822.4" x2="436.8" y2="1825.9"/>
	<text transform="matrix(1 0 0 1 425.6645 1836.9941)" class="st99 st100">10.0</text>
	<line x1="507.5" y1="1822.4" x2="507.5" y2="1825.9"/>
	<line class="st98" x1="507.5" y1="1822.4" x2="507.5" y2="1825.9"/>
	<text transform="matrix(1 0 0 1 496.3852 1836.9941)" class="st99 st100">12.5</text>
	<line x1="578.2" y1="1822.4" x2="578.2" y2="1825.9"/>
	<line class="st98" x1="578.2" y1="1822.4" x2="578.2" y2="1825.9"/>
	<text transform="matrix(1 0 0 1 567.1059 1836.9941)" class="st99 st100">15.0</text>
	<line x1="649" y1="1822.4" x2="649" y2="1825.9"/>
	<line class="st98" x1="649" y1="1822.4" x2="649" y2="1825.9"/>
	<text transform="matrix(1 0 0 1 637.8256 1836.9941)" class="st99 st100">17.5</text>
	<text transform="matrix(1 0 0 1 332.7592 1868.666)" class="st99 st101">Percentage of Reported Depression</text>
	<text transform="matrix(1 0 0 1 47.728 1810.5723)" class="st99 st100">District of Columbia</text>
	<text transform="matrix(1 0 0 1 99.2436 1778.8496)" class="st99 st100">California</text>
	<text transform="matrix(1 0 0 1 112.8998 1744.127)" class="st99 st100">Florida</text>
	<text transform="matrix(1 0 0 1 102.8217 1709.4053)" class="st99 st100">Alabama</text>
	<text transform="matrix(1 0 0 1 73.2748 1674.6826)" class="st99 st100">South Carolina</text>
	<text transform="matrix(1 0 0 1 93.603 1639.96)" class="st99 st100">Mississippi</text>
	<text transform="matrix(1 0 0 1 99.4936 1605.2383)" class="st99 st100">Louisiana</text>
	<text transform="matrix(1 0 0 1 86.9936 1570.5156)" class="st99 st100">Connecticut</text>
	<text transform="matrix(1 0 0 1 91.3842 1535.793)" class="st99 st100">New Jersey</text>
	<text transform="matrix(1 0 0 1 101.1342 1501.0703)" class="st99 st100">Arkansas</text>
	<text transform="matrix(1 0 0 1 93.0717 1466.3486)" class="st99 st100">Tennessee</text>
	<text transform="matrix(1 0 0 1 99.5717 1431.626)" class="st99 st100">Delaware</text>
	<text transform="matrix(1 0 0 1 72.978 1396.9033)" class="st99 st100">Massachusetts</text>
	<text transform="matrix(1 0 0 1 74.3686 1362.1816)" class="st99 st100">North Carolina</text>
	<text transform="matrix(1 0 0 1 108.7592 1327.459)" class="st99 st100">Nevada</text>
	<text transform="matrix(1 0 0 1 109.3373 1292.7363)" class="st99 st100">Arizona</text>
	<text transform="matrix(1 0 0 1 113.3998 1258.0146)" class="st99 st100">Hawaii</text>
	<text transform="matrix(1 0 0 1 108.8061 1223.292)" class="st99 st100">Virginia</text>
	<text transform="matrix(1 0 0 1 102.0717 1188.5693)" class="st99 st100">Michigan</text>
	<text transform="matrix(1 0 0 1 109.9623 1153.8477)" class="st99 st100">Oregon</text>
	<text transform="matrix(1 0 0 1 105.7123 1119.125)" class="st99 st100">Missouri</text>
	<text transform="matrix(1 0 0 1 82.0405 1084.4023)" class="st99 st100">Rhode Island</text>
	<text transform="matrix(1 0 0 1 100.5405 1049.6807)" class="st99 st100">Maryland</text>
	<text transform="matrix(1 0 0 1 67.5561 1014.958)" class="st99 st100">New Hampshire</text>
	<text transform="matrix(1 0 0 1 117.3998 980.2358)" class="st99 st100">Texas</text>
	<text transform="matrix(1 0 0 1 102.1967 945.5137)" class="st99 st100">Colorado</text>
	<text transform="matrix(1 0 0 1 99.7592 910.791)" class="st99 st100">Wyoming</text>
	<text transform="matrix(1 0 0 1 95.2748 876.0688)" class="st99 st100">Minnesota</text>
	<text transform="matrix(1 0 0 1 103.3061 841.3462)" class="st99 st100">Montana</text>
	<text transform="matrix(1 0 0 1 80.4311 806.624)" class="st99 st100">West Virginia</text>
	<text transform="matrix(1 0 0 1 119.0248 771.9019)" class="st99 st100">Idaho</text>
	<text transform="matrix(1 0 0 1 86.7905 737.1792)" class="st99 st100">New Mexico</text>
	<text transform="matrix(1 0 0 1 99.5561 702.457)" class="st99 st100">Nebraska</text>
	<text transform="matrix(1 0 0 1 123.5248 667.7344)" class="st99 st100">Iowa</text>
	<text transform="matrix(1 0 0 1 95.9936 633.0122)" class="st99 st100">Oklahoma</text>
	<text transform="matrix(1 0 0 1 96.7123 598.29)" class="st99 st100">Wisconsin</text>
	<text transform="matrix(1 0 0 1 107.5248 563.5674)" class="st99 st100">Georgia</text>
	<text transform="matrix(1 0 0 1 79.9467 528.8452)" class="st99 st100">North Dakota</text>
	<text transform="matrix(1 0 0 1 111.3217 494.123)" class="st99 st100">Kansas</text>
	<text transform="matrix(1 0 0 1 114.0248 459.4004)" class="st99 st100">Alaska</text>
	<text transform="matrix(1 0 0 1 99.7748 424.6782)" class="st99 st100">New York</text>
	<text transform="matrix(1 0 0 1 123.1967 389.9561)" class="st99 st100">Utah</text>
	<text transform="matrix(1 0 0 1 109.8998 355.2334)" class="st99 st100">Indiana</text>
	<text transform="matrix(1 0 0 1 103.6655 320.5112)" class="st99 st100">Vermont</text>
	<text transform="matrix(1 0 0 1 116.8842 285.7891)" class="st99 st100">Maine</text>
	<text transform="matrix(1 0 0 1 87.478 251.0664)" class="st99 st100">Washington</text>
	<text transform="matrix(1 0 0 1 123.7905 216.3442)" class="st99 st100">Ohio</text>
	<text transform="matrix(1 0 0 1 115.1498 181.6221)" class="st99 st100">Illinois</text>
	<rect x="103.9" y="23" class="st102" width="720" height="2160"/>
	<rect x="71" y="59.4" class="st102" width="625.6" height="72"/>
	<text transform="matrix(1 0 0 1 71.0284 83.918)"><tspan x="0" y="0" class="st99 st103">How </tspan><tspan x="82" y="0" class="st104 st99 st103">Nursing Home </tspan><tspan x="308.6" y="0" class="st99 st103">Depression Rates </tspan><tspan x="0" y="41" class="st99 st103">Vary From </tspan><tspan x="165.9" y="41" class="st105 st99 st103">State Averages</tspan></text>
</g>
</svg>
