<?xml version="1.0" encoding="utf-8"?>
<!-- Generator: Adobe Illustrator 22.1.0, SVG Export Plug-In . SVG Version: 6.00 Build 0)  -->
<svg version="1.1" id="Layer_1" xmlns="http://www.w3.org/2000/svg" xmlns:xlink="http://www.w3.org/1999/xlink" x="0px" y="0px"
	 viewBox="0 0 669.1 412.3" style="enable-background:new 0 0 669.1 412.3;" xml:space="preserve">
<style type="text/css">
	.st0{fill:#742F35;}
	.st1{fill:#D05B5B;}
	.st2{fill:#401515;}
	.st3{fill:#9F6969;}
	.st4{fill:#FFFFFF;}
	.st5{fill:none;stroke:#000000;stroke-miterlimit:10;}
	.st6{fill:none;}
	.st7{font-family:'GillSans';}
	.st8{font-size:20px;}
	.st9{opacity:0.8;fill:#E5E5E5;}
	.st10{opacity:0.8;fill:none;stroke:#CCCCCC;stroke-width:0.2;stroke-miterlimit:10;}
	.st11{fill:#8B594C;}
	.st12{font-family:'GillSans-Light';}
	.st13{font-size:10px;}
</style>
<path class="st0" d="M354.1,229.7c0-2.8-0.1-5.5-0.2-8.3c-0.2-2.8-0.4-5.5-0.7-8.3l-150.5,16.6H354.1z"/>
<path class="st0" d="M353.2,213.1c-0.4-3.2-0.8-6.4-1.4-9.6s-1.2-6.3-2-9.5l-147.2,35.6L353.2,213.1z"/>
<path class="st1" d="M349.8,194.1c-5.4-22.2-15.7-42.9-30.2-60.6c-14.5-17.7-32.9-31.8-53.6-41.3c-20.8-9.6-43.4-14.3-66.3-13.8
	s-45.3,6.1-65.7,16.4C113.6,105.2,95.8,120,82,138.2c-13.8,18.2-23.3,39.3-27.8,61.7s-3.9,45.6,1.9,67.7
	c5.7,22.1,16.4,42.7,31.2,60.1l115.4-98L349.8,194.1z"/>
<path class="st1" d="M87.3,327.7c13.7,16.1,30.5,29.1,49.5,38.3c19,9.2,39.7,14.3,60.8,15s42.1-3,61.6-10.8s37.3-19.7,52-34.8
	L202.7,229.7L87.3,327.7z"/>
<path class="st1" d="M311.1,335.4c7.9-8.1,14.9-17.1,20.8-26.8c5.9-9.7,10.7-20,14.3-30.8l-143.6-48L311.1,335.4z"/>
<path class="st2" d="M346.3,277.7c1.6-4.7,2.9-9.4,4-14.2c1.1-4.8,2-9.7,2.6-14.6l-150.2-19.2L346.3,277.7z"/>
<path class="st2" d="M352.9,248.9c0.1-0.4,0.1-0.9,0.2-1.3c0.1-0.4,0.1-0.9,0.2-1.3l-150.5-16.5L352.9,248.9z"/>
<path class="st0" d="M353.2,246.2C353.2,246.2,353.2,246.2,353.2,246.2C353.2,246.2,353.2,246.2,353.2,246.2l-150.5-16.5
	L353.2,246.2z"/>
<path class="st3" d="M353.2,246.1c0.1-1.3,0.3-2.6,0.4-3.9c0.1-1.3,0.2-2.6,0.3-4l-151.2-8.5L353.2,246.1z"/>
<path class="st3" d="M353.8,238.2c0.1-1.1,0.1-2.1,0.1-3.2s0.1-2.1,0.1-3.2l-151.4-2.1L353.8,238.2z"/>
<path class="st0" d="M354.1,231.8c0-0.4,0-0.7,0-1.1c0-0.4,0-0.7,0-1.1H202.7L354.1,231.8z"/>
<path class="st4" d="M202.7,335.7c28.1,0,55.1-11.2,74.9-31c19.9-19.9,31-46.8,31-74.9c0-28.1-11.2-55.1-31-74.9
	c-19.9-19.9-46.8-31-74.9-31s-55.1,11.2-74.9,31c-19.9,19.9-31,46.8-31,74.9c0,28.1,11.2,55.1,31,74.9S174.6,335.7,202.7,335.7z"/>
<path class="st5" d="M202.7,335.7c28.1,0,55.1-11.2,74.9-31c19.9-19.9,31-46.8,31-74.9c0-28.1-11.2-55.1-31-74.9
	c-19.9-19.9-46.8-31-74.9-31s-55.1,11.2-74.9,31c-19.9,19.9-31,46.8-31,74.9c0,28.1,11.2,55.1,31,74.9S174.6,335.7,202.7,335.7z"/>
<rect x="34.5" y="66.7" class="st6" width="334.8" height="326.2"/>
<polyline points="50.2,47.8 51.6,47.8 54.8,53.9 54.8,47.8 55.8,47.8 55.8,55.1 54.4,55.1 51.2,49 51.2,55.1 50.2,55.1 50.2,47.8 
	"/>
<path d="M59.8,49.5L59.8,49.5 M57.6,53v-3.3h0.9v3.3c0,0.5,0.1,0.9,0.3,1.2s0.5,0.4,0.9,0.4c0.5,0,0.9-0.1,1.1-0.5
	c0.3-0.3,0.4-0.7,0.4-1.3v-3.1h0.9v5.5h-0.9v-0.8c-0.2,0.3-0.5,0.6-0.8,0.7c-0.3,0.1-0.6,0.2-1,0.2c-0.6,0-1.1-0.2-1.4-0.6
	C57.7,54.3,57.6,53.7,57.6,53"/>
<path d="M67.2,50.5c-0.1-0.1-0.2-0.1-0.3-0.1c-0.1,0-0.2,0-0.4,0c-0.5,0-0.9,0.2-1.2,0.5c-0.3,0.3-0.4,0.8-0.4,1.4v2.9H64v-5.5h0.9
	v0.9c0.2-0.3,0.4-0.6,0.7-0.7c0.3-0.2,0.7-0.2,1.1-0.2c0.1,0,0.1,0,0.2,0c0.1,0,0.2,0,0.2,0V50.5"/>
<path d="M71.6,49.8v0.9c-0.3-0.1-0.5-0.2-0.8-0.3c-0.3-0.1-0.6-0.1-0.8-0.1c-0.4,0-0.8,0.1-1,0.2c-0.2,0.1-0.3,0.3-0.3,0.6
	c0,0.2,0.1,0.4,0.2,0.5s0.5,0.2,1,0.3l0.3,0.1c0.6,0.1,1.1,0.3,1.4,0.6c0.3,0.2,0.4,0.6,0.4,1c0,0.5-0.2,0.9-0.6,1.2
	c-0.4,0.3-1,0.4-1.7,0.4c-0.3,0-0.6,0-0.9-0.1c-0.3,0-0.7-0.1-1-0.2V54c0.3,0.2,0.7,0.3,1,0.4c0.3,0.1,0.6,0.1,1,0.1
	c0.4,0,0.8-0.1,1-0.2c0.2-0.1,0.3-0.4,0.3-0.6c0-0.2-0.1-0.4-0.2-0.6c-0.2-0.1-0.5-0.3-1.1-0.4l-0.3-0.1c-0.6-0.1-1-0.3-1.2-0.5
	c-0.2-0.2-0.4-0.6-0.4-1c0-0.5,0.2-0.9,0.5-1.2s0.9-0.4,1.6-0.4c0.3,0,0.6,0,0.9,0.1C71.1,49.7,71.4,49.7,71.6,49.8"/>
<path d="M73.3,47.5h0.9v1.1h-0.9V47.5 M73.3,49.7h0.9v5.5h-0.9V49.7"/>
<path d="M80.7,51.8v3.3h-0.9v-3.3c0-0.5-0.1-0.9-0.3-1.2c-0.2-0.3-0.5-0.4-0.9-0.4c-0.5,0-0.9,0.2-1.2,0.5S77,51.5,77,52v3.1h-0.9
	v-5.5H77v0.9c0.2-0.3,0.5-0.6,0.8-0.7c0.3-0.2,0.6-0.2,1-0.2c0.6,0,1.1,0.2,1.4,0.6C80.5,50.5,80.7,51.1,80.7,51.8"/>
<path d="M87,54.5c0,0.9-0.2,1.6-0.6,2.1c-0.4,0.4-1,0.7-1.9,0.7c-0.3,0-0.6,0-0.9-0.1c-0.3,0-0.6-0.1-0.8-0.2V56
	c0.3,0.1,0.5,0.2,0.8,0.3c0.3,0.1,0.5,0.1,0.8,0.1c0.6,0,1-0.2,1.3-0.5c0.3-0.3,0.4-0.8,0.4-1.4v-0.4c-0.2,0.3-0.4,0.6-0.7,0.7
	c-0.3,0.2-0.6,0.2-1,0.2c-0.7,0-1.2-0.2-1.6-0.8c-0.4-0.5-0.6-1.2-0.6-2c0-0.8,0.2-1.5,0.6-2c0.4-0.5,0.9-0.8,1.6-0.8
	c0.4,0,0.7,0.1,1,0.2c0.3,0.2,0.5,0.4,0.7,0.7v-0.8H87V54.5 M86.1,52.3c0-0.6-0.1-1.2-0.4-1.5c-0.3-0.4-0.6-0.5-1.1-0.5
	c-0.5,0-0.9,0.2-1.1,0.5c-0.3,0.4-0.4,0.9-0.4,1.5c0,0.6,0.1,1.1,0.4,1.5c0.3,0.4,0.7,0.5,1.1,0.5c0.5,0,0.9-0.2,1.1-0.5
	C85.9,53.5,86.1,53,86.1,52.3"/>
<path d="M96.5,51.8v3.3h-0.9v-3.3c0-0.5-0.1-0.9-0.3-1.2c-0.2-0.3-0.5-0.4-0.9-0.4c-0.5,0-0.9,0.2-1.2,0.5s-0.4,0.7-0.4,1.3v3.1H92
	v-7.6h0.9v3c0.2-0.3,0.5-0.6,0.8-0.7c0.3-0.2,0.6-0.2,1-0.2c0.6,0,1.1,0.2,1.4,0.6C96.4,50.5,96.5,51.1,96.5,51.8"/>
<path d="M100.4,49.5c0.8,0,1.4,0.3,1.8,0.8c0.4,0.5,0.7,1.2,0.7,2.1c0,0.9-0.2,1.6-0.7,2.1c-0.4,0.5-1.1,0.8-1.8,0.8
	c-0.8,0-1.4-0.2-1.9-0.8c-0.4-0.5-0.7-1.2-0.7-2.1c0-0.9,0.2-1.6,0.7-2.1C99,49.8,99.7,49.5,100.4,49.5 M100.4,50.3
	c-0.5,0-0.9,0.2-1.1,0.6c-0.3,0.4-0.4,0.9-0.4,1.5c0,0.7,0.1,1.2,0.4,1.6s0.7,0.6,1.2,0.6c0.5,0,0.9-0.2,1.1-0.6s0.4-0.9,0.4-1.6
	c0-0.6-0.1-1.2-0.4-1.5C101.3,50.5,100.9,50.3,100.4,50.3"/>
<path d="M108.7,50.7c0.2-0.4,0.5-0.7,0.8-0.9c0.3-0.2,0.7-0.3,1.1-0.3c0.6,0,1,0.2,1.3,0.6c0.3,0.4,0.5,1,0.5,1.7v3.3h-0.9v-3.3
	c0-0.5-0.1-0.9-0.3-1.2c-0.2-0.2-0.5-0.4-0.8-0.4c-0.5,0-0.8,0.2-1.1,0.5c-0.3,0.3-0.4,0.7-0.4,1.3v3.1H108v-3.3
	c0-0.5-0.1-0.9-0.3-1.2c-0.2-0.2-0.5-0.4-0.9-0.4c-0.5,0-0.8,0.2-1.1,0.5c-0.3,0.3-0.4,0.7-0.4,1.3v3.1h-0.9v-5.5h0.9v0.9
	c0.2-0.3,0.4-0.6,0.7-0.7c0.3-0.2,0.6-0.2,1-0.2c0.4,0,0.7,0.1,1,0.3C108.4,50,108.6,50.3,108.7,50.7"/>
<path d="M118,51.9c0-0.5-0.2-0.9-0.4-1.2c-0.3-0.3-0.6-0.4-1.1-0.4c-0.5,0-0.9,0.1-1.2,0.4c-0.3,0.3-0.5,0.7-0.5,1.2H118
	 M118.9,52.2v0.4h-4.1c0,0.6,0.2,1.1,0.6,1.4c0.3,0.3,0.8,0.5,1.4,0.5c0.3,0,0.7,0,1-0.1c0.3-0.1,0.7-0.2,1-0.4v0.9
	c-0.3,0.1-0.7,0.2-1,0.3c-0.3,0.1-0.7,0.1-1,0.1c-0.9,0-1.6-0.2-2.1-0.8c-0.5-0.5-0.8-1.2-0.8-2.1c0-0.9,0.2-1.6,0.7-2.1
	c0.5-0.5,1.1-0.8,2-0.8c0.7,0,1.3,0.2,1.8,0.7C118.6,50.7,118.9,51.4,118.9,52.2"/>
<path d="M124.1,52.4c0,0.7,0.1,1.2,0.4,1.6c0.3,0.4,0.7,0.6,1.1,0.6c0.5,0,0.8-0.2,1.1-0.6c0.3-0.4,0.4-0.9,0.4-1.6
	s-0.1-1.2-0.4-1.5c-0.3-0.4-0.6-0.6-1.1-0.6c-0.5,0-0.9,0.2-1.1,0.6C124.2,51.2,124.1,51.7,124.1,52.4 M127.1,50.5v-3h0.9v7.6h-0.9
	v-0.8c-0.2,0.3-0.4,0.6-0.7,0.7s-0.6,0.2-1,0.2c-0.7,0-1.2-0.3-1.6-0.8c-0.4-0.5-0.6-1.2-0.6-2.1c0-0.9,0.2-1.5,0.6-2.1
	c0.4-0.5,1-0.8,1.6-0.8c0.4,0,0.7,0.1,1,0.2C126.7,49.9,126.9,50.2,127.1,50.5"/>
<path d="M133.6,51.9c0-0.5-0.2-0.9-0.4-1.2c-0.3-0.3-0.6-0.4-1.1-0.4c-0.5,0-0.9,0.1-1.2,0.4s-0.5,0.7-0.5,1.2H133.6 M134.5,52.2
	v0.4h-4.1c0,0.6,0.2,1.1,0.6,1.4c0.3,0.3,0.8,0.5,1.4,0.5c0.3,0,0.7,0,1-0.1c0.3-0.1,0.6-0.2,1-0.4v0.9c-0.3,0.1-0.7,0.2-1,0.3
	s-0.7,0.1-1,0.1c-0.9,0-1.6-0.2-2.1-0.8s-0.8-1.2-0.8-2.1c0-0.9,0.2-1.6,0.7-2.1c0.5-0.5,1.1-0.8,2-0.8c0.7,0,1.3,0.2,1.8,0.7
	C134.3,50.7,134.5,51.4,134.5,52.2"/>
<path d="M138.8,47.5v0.8h-0.9c-0.3,0-0.5,0.1-0.7,0.2c-0.1,0.1-0.2,0.4-0.2,0.7v0.5h1.5v0.7h-1.5v4.8h-0.9v-4.8h-0.9v-0.7h0.9v-0.4
	c0-0.6,0.1-1,0.4-1.3s0.7-0.4,1.4-0.4H138.8"/>
<path d="M139.5,47.5h0.9v1.1h-0.9V47.5 M139.5,49.7h0.9v5.5h-0.9V49.7"/>
<path d="M146.3,49.9v0.8c-0.3-0.1-0.5-0.2-0.8-0.3c-0.3-0.1-0.5-0.1-0.8-0.1c-0.6,0-1,0.2-1.4,0.6c-0.3,0.4-0.5,0.9-0.5,1.5
	c0,0.7,0.2,1.2,0.5,1.6c0.3,0.4,0.8,0.6,1.4,0.6c0.3,0,0.5,0,0.8-0.1c0.3-0.1,0.5-0.2,0.8-0.3v0.8c-0.3,0.1-0.5,0.2-0.8,0.3
	c-0.3,0.1-0.6,0.1-0.9,0.1c-0.8,0-1.5-0.2-2-0.8c-0.5-0.5-0.7-1.2-0.7-2.1c0-0.9,0.2-1.6,0.7-2.1c0.5-0.5,1.2-0.8,2-0.8
	c0.3,0,0.5,0,0.8,0.1C145.7,49.7,146,49.8,146.3,49.9"/>
<path d="M147.8,47.5h0.9v1.1h-0.9V47.5 M147.8,49.7h0.9v5.5h-0.9V49.7"/>
<path d="M154.4,51.9c0-0.5-0.2-0.9-0.4-1.2c-0.3-0.3-0.6-0.4-1.1-0.4c-0.5,0-0.9,0.1-1.2,0.4s-0.5,0.7-0.5,1.2H154.4 M155.3,52.2
	v0.4h-4.1c0,0.6,0.2,1.1,0.6,1.4c0.3,0.3,0.8,0.5,1.4,0.5c0.3,0,0.7,0,1-0.1c0.3-0.1,0.6-0.2,1-0.4v0.9c-0.3,0.1-0.7,0.2-1,0.3
	s-0.7,0.1-1,0.1c-0.9,0-1.6-0.2-2.1-0.8s-0.8-1.2-0.8-2.1c0-0.9,0.2-1.6,0.7-2.1c0.5-0.5,1.1-0.8,2-0.8c0.7,0,1.3,0.2,1.8,0.7
	C155.1,50.7,155.3,51.4,155.3,52.2"/>
<path d="M161.3,51.8v3.3h-0.9v-3.3c0-0.5-0.1-0.9-0.3-1.2c-0.2-0.3-0.5-0.4-0.9-0.4c-0.5,0-0.9,0.2-1.1,0.5s-0.4,0.7-0.4,1.3v3.1
	h-0.9v-5.5h0.9v0.9c0.2-0.3,0.5-0.6,0.8-0.7c0.3-0.2,0.6-0.2,1-0.2c0.6,0,1.1,0.2,1.4,0.6C161.1,50.5,161.3,51.1,161.3,51.8"/>
<path d="M167,49.9v0.8c-0.3-0.1-0.5-0.2-0.8-0.3c-0.3-0.1-0.5-0.1-0.8-0.1c-0.6,0-1,0.2-1.4,0.6c-0.3,0.4-0.5,0.9-0.5,1.5
	c0,0.7,0.2,1.2,0.5,1.6c0.3,0.4,0.8,0.6,1.4,0.6c0.3,0,0.5,0,0.8-0.1c0.3-0.1,0.5-0.2,0.8-0.3v0.8c-0.3,0.1-0.5,0.2-0.8,0.3
	c-0.3,0.1-0.6,0.1-0.9,0.1c-0.8,0-1.5-0.2-2-0.8c-0.5-0.5-0.7-1.2-0.7-2.1c0-0.9,0.2-1.6,0.7-2.1c0.5-0.5,1.2-0.8,2-0.8
	c0.3,0,0.5,0,0.8,0.1C166.5,49.7,166.8,49.8,167,49.9"/>
<path d="M168.6,47.5h0.9v1.1h-0.9V47.5 M168.6,49.7h0.9v5.5h-0.9V49.7"/>
<path d="M175.1,51.9c0-0.5-0.2-0.9-0.4-1.2c-0.3-0.3-0.6-0.4-1.1-0.4c-0.5,0-0.9,0.1-1.2,0.4s-0.5,0.7-0.5,1.2H175.1 M176,52.2v0.4
	h-4.1c0,0.6,0.2,1.1,0.6,1.4c0.3,0.3,0.8,0.5,1.4,0.5c0.3,0,0.7,0,1-0.1c0.3-0.1,0.6-0.2,1-0.4v0.9c-0.3,0.1-0.7,0.2-1,0.3
	s-0.7,0.1-1,0.1c-0.9,0-1.6-0.2-2.1-0.8s-0.8-1.2-0.8-2.1c0-0.9,0.2-1.6,0.7-2.1c0.5-0.5,1.1-0.8,2-0.8c0.7,0,1.3,0.2,1.8,0.7
	C175.8,50.7,176,51.4,176,52.2"/>
<path d="M181,49.8v0.9c-0.3-0.1-0.5-0.2-0.8-0.3c-0.3-0.1-0.6-0.1-0.9-0.1c-0.4,0-0.8,0.1-1,0.2c-0.2,0.1-0.3,0.3-0.3,0.6
	c0,0.2,0.1,0.4,0.2,0.5c0.2,0.1,0.5,0.2,1,0.3l0.3,0.1c0.6,0.1,1.1,0.3,1.4,0.6c0.3,0.2,0.4,0.6,0.4,1c0,0.5-0.2,0.9-0.6,1.2
	c-0.4,0.3-1,0.4-1.7,0.4c-0.3,0-0.6,0-0.9-0.1c-0.3,0-0.6-0.1-1-0.2V54c0.3,0.2,0.7,0.3,1,0.4c0.3,0.1,0.6,0.1,1,0.1
	c0.4,0,0.8-0.1,1-0.2c0.2-0.1,0.3-0.4,0.3-0.6c0-0.2-0.1-0.4-0.2-0.6c-0.2-0.1-0.5-0.3-1.1-0.4l-0.3-0.1c-0.6-0.1-1-0.3-1.2-0.5
	c-0.2-0.2-0.4-0.6-0.4-1c0-0.5,0.2-0.9,0.5-1.2s0.9-0.4,1.6-0.4c0.3,0,0.6,0,0.9,0.1C180.5,49.7,180.8,49.7,181,49.8"/>
<path d="M190.2,52v3.1h-0.9v-0.8c-0.2,0.3-0.5,0.6-0.8,0.7s-0.7,0.2-1.1,0.2c-0.6,0-1-0.1-1.3-0.5c-0.3-0.3-0.5-0.7-0.5-1.3
	c0-0.6,0.2-1.1,0.6-1.4c0.4-0.3,1-0.5,1.8-0.5h1.3v-0.1c0-0.4-0.1-0.7-0.4-1c-0.3-0.2-0.7-0.3-1.1-0.3c-0.3,0-0.6,0-0.9,0.1
	c-0.3,0.1-0.6,0.2-0.9,0.3v-0.8c0.3-0.1,0.6-0.2,0.9-0.3s0.6-0.1,0.9-0.1c0.8,0,1.4,0.2,1.8,0.6S190.2,51.2,190.2,52 M188.4,52.4
	c-0.7,0-1.2,0.1-1.5,0.2c-0.3,0.2-0.4,0.5-0.4,0.9c0,0.3,0.1,0.6,0.3,0.8c0.2,0.2,0.5,0.3,0.9,0.3c0.5,0,0.9-0.2,1.2-0.5
	c0.3-0.3,0.5-0.8,0.5-1.4v-0.2H188.4"/>
<path d="M195.2,50.5c-0.1-0.1-0.2-0.1-0.3-0.1c-0.1,0-0.2,0-0.4,0c-0.5,0-0.9,0.2-1.2,0.5c-0.3,0.3-0.4,0.8-0.4,1.4v2.9H192v-5.5
	h0.9v0.9c0.2-0.3,0.4-0.6,0.7-0.7c0.3-0.2,0.7-0.2,1.1-0.2c0.1,0,0.1,0,0.2,0c0.1,0,0.1,0,0.2,0V50.5"/>
<path d="M199.9,51.9c0-0.5-0.1-0.9-0.4-1.2c-0.3-0.3-0.6-0.4-1.1-0.4c-0.5,0-0.9,0.1-1.2,0.4c-0.3,0.3-0.5,0.7-0.5,1.2H199.9
	 M200.8,52.2v0.4h-4.1c0,0.6,0.2,1.1,0.6,1.4c0.3,0.3,0.8,0.5,1.4,0.5c0.3,0,0.7,0,1-0.1c0.3-0.1,0.6-0.2,1-0.4v0.9
	c-0.3,0.1-0.7,0.2-1,0.3s-0.7,0.1-1,0.1c-0.9,0-1.6-0.2-2.1-0.8c-0.5-0.5-0.8-1.2-0.8-2.1c0-0.9,0.2-1.6,0.7-2.1
	c0.5-0.5,1.1-0.8,2-0.8c0.7,0,1.3,0.2,1.8,0.7C200.6,50.7,200.8,51.4,200.8,52.2"/>
<path d="M208.6,50.5c-0.1-0.1-0.2-0.1-0.3-0.1c-0.1,0-0.2,0-0.4,0c-0.5,0-0.9,0.2-1.2,0.5c-0.3,0.3-0.4,0.8-0.4,1.4v2.9h-0.9v-5.5
	h0.9v0.9c0.2-0.3,0.4-0.6,0.7-0.7c0.3-0.2,0.7-0.2,1.1-0.2c0.1,0,0.1,0,0.2,0c0.1,0,0.1,0,0.2,0V50.5"/>
<path d="M213.9,52v3.1H213v-0.8c-0.2,0.3-0.5,0.6-0.8,0.7s-0.7,0.2-1.1,0.2c-0.6,0-1-0.1-1.3-0.5c-0.3-0.3-0.5-0.7-0.5-1.3
	c0-0.6,0.2-1.1,0.6-1.4c0.4-0.3,1-0.5,1.8-0.5h1.3v-0.1c0-0.4-0.1-0.7-0.4-1c-0.3-0.2-0.7-0.3-1.1-0.3c-0.3,0-0.6,0-0.9,0.1
	c-0.3,0.1-0.6,0.2-0.9,0.3v-0.8c0.3-0.1,0.6-0.2,0.9-0.3s0.6-0.1,0.9-0.1c0.8,0,1.4,0.2,1.8,0.6S213.9,51.2,213.9,52 M212.1,52.4
	c-0.7,0-1.2,0.1-1.5,0.2c-0.3,0.2-0.4,0.5-0.4,0.9c0,0.3,0.1,0.6,0.3,0.8c0.2,0.2,0.5,0.3,0.9,0.3c0.5,0,0.9-0.2,1.2-0.5
	c0.3-0.3,0.5-0.8,0.5-1.4v-0.2H212.1"/>
<path d="M220.3,51.8v3.3h-0.9v-3.3c0-0.5-0.1-0.9-0.3-1.2c-0.2-0.3-0.5-0.4-0.9-0.4c-0.5,0-0.9,0.2-1.2,0.5s-0.4,0.7-0.4,1.3v3.1
	h-0.9v-5.5h0.9v0.9c0.2-0.3,0.5-0.6,0.8-0.7c0.3-0.2,0.6-0.2,1-0.2c0.6,0,1.1,0.2,1.4,0.6C220.1,50.5,220.3,51.1,220.3,51.8"/>
<polyline points="222,47.5 222.9,47.5 222.9,52 225.6,49.7 226.8,49.7 223.9,52.2 226.9,55.1 225.7,55.1 222.9,52.5 222.9,55.1 
	222,55.1 222,47.5 "/>
<path d="M231.6,51.9c0-0.5-0.1-0.9-0.4-1.2c-0.3-0.3-0.6-0.4-1.1-0.4c-0.5,0-0.9,0.1-1.2,0.4c-0.3,0.3-0.5,0.7-0.5,1.2H231.6
	 M232.5,52.2v0.4h-4.1c0,0.6,0.2,1.1,0.6,1.4c0.3,0.3,0.8,0.5,1.4,0.5c0.3,0,0.7,0,1-0.1c0.3-0.1,0.6-0.2,1-0.4v0.9
	c-0.3,0.1-0.7,0.2-1,0.3s-0.7,0.1-1,0.1c-0.9,0-1.6-0.2-2.1-0.8c-0.5-0.5-0.8-1.2-0.8-2.1c0-0.9,0.2-1.6,0.7-2.1
	c0.5-0.5,1.1-0.8,2-0.8c0.7,0,1.3,0.2,1.8,0.7C232.3,50.7,232.5,51.4,232.5,52.2"/>
<path d="M234.5,52.4c0,0.7,0.1,1.2,0.4,1.6c0.3,0.4,0.6,0.6,1.1,0.6c0.5,0,0.8-0.2,1.1-0.6c0.3-0.4,0.4-0.9,0.4-1.6
	s-0.1-1.2-0.4-1.5c-0.3-0.4-0.7-0.6-1.1-0.6c-0.5,0-0.9,0.2-1.1,0.6C234.7,51.2,234.5,51.7,234.5,52.4 M237.6,50.5v-3h0.9v7.6h-0.9
	v-0.8c-0.2,0.3-0.4,0.6-0.7,0.7c-0.3,0.1-0.6,0.2-1,0.2c-0.7,0-1.2-0.3-1.6-0.8c-0.4-0.5-0.6-1.2-0.6-2.1c0-0.9,0.2-1.5,0.6-2.1
	c0.4-0.5,1-0.8,1.6-0.8c0.4,0,0.7,0.1,1,0.2C237.2,49.9,237.4,50.2,237.6,50.5"/>
<path d="M245.6,49.5c0.8,0,1.4,0.3,1.8,0.8c0.4,0.5,0.7,1.2,0.7,2.1c0,0.9-0.2,1.6-0.7,2.1c-0.4,0.5-1.1,0.8-1.8,0.8
	c-0.8,0-1.4-0.2-1.8-0.8c-0.4-0.5-0.7-1.2-0.7-2.1c0-0.9,0.2-1.6,0.7-2.1C244.2,49.8,244.9,49.5,245.6,49.5 M245.6,50.3
	c-0.5,0-0.9,0.2-1.1,0.6c-0.3,0.4-0.4,0.9-0.4,1.5c0,0.7,0.1,1.2,0.4,1.6s0.7,0.6,1.1,0.6c0.5,0,0.9-0.2,1.1-0.6s0.4-0.9,0.4-1.6
	c0-0.6-0.1-1.2-0.4-1.5C246.5,50.5,246.1,50.3,245.6,50.3"/>
<path d="M254.2,51.8v3.3h-0.9v-3.3c0-0.5-0.1-0.9-0.3-1.2c-0.2-0.3-0.5-0.4-0.9-0.4c-0.5,0-0.9,0.2-1.2,0.5s-0.4,0.7-0.4,1.3v3.1
	h-0.9v-5.5h0.9v0.9c0.2-0.3,0.5-0.6,0.8-0.7c0.3-0.2,0.6-0.2,1-0.2c0.6,0,1.1,0.2,1.4,0.6C254,50.5,254.2,51.1,254.2,51.8"/>
<path d="M263.4,52v3.1h-0.9v-0.8c-0.2,0.3-0.5,0.6-0.8,0.7c-0.3,0.1-0.7,0.2-1.1,0.2c-0.6,0-1-0.1-1.3-0.5c-0.3-0.3-0.5-0.7-0.5-1.3
	c0-0.6,0.2-1.1,0.6-1.4c0.4-0.3,1-0.5,1.8-0.5h1.3v-0.1c0-0.4-0.1-0.7-0.4-1c-0.3-0.2-0.6-0.3-1.1-0.3c-0.3,0-0.6,0-0.9,0.1
	s-0.6,0.2-0.9,0.3v-0.8c0.3-0.1,0.6-0.2,1-0.3s0.6-0.1,0.9-0.1c0.8,0,1.4,0.2,1.8,0.6C263.2,50.6,263.4,51.2,263.4,52 M261.7,52.4
	c-0.7,0-1.2,0.1-1.5,0.2c-0.3,0.2-0.4,0.5-0.4,0.9c0,0.3,0.1,0.6,0.3,0.8c0.2,0.2,0.5,0.3,0.9,0.3c0.5,0,0.9-0.2,1.2-0.5
	c0.3-0.3,0.5-0.8,0.5-1.4v-0.2H261.7"/>
<path d="M272,49.8v0.9c-0.3-0.1-0.5-0.2-0.8-0.3c-0.3-0.1-0.6-0.1-0.9-0.1c-0.5,0-0.8,0.1-1,0.2c-0.2,0.1-0.3,0.3-0.3,0.6
	c0,0.2,0.1,0.4,0.2,0.5s0.5,0.2,1,0.3l0.3,0.1c0.6,0.1,1.1,0.3,1.4,0.6c0.3,0.2,0.4,0.6,0.4,1c0,0.5-0.2,0.9-0.6,1.2
	c-0.4,0.3-1,0.4-1.7,0.4c-0.3,0-0.6,0-0.9-0.1c-0.3,0-0.6-0.1-1-0.2V54c0.3,0.2,0.7,0.3,1,0.4c0.3,0.1,0.6,0.1,1,0.1
	c0.4,0,0.8-0.1,1-0.2c0.2-0.1,0.3-0.4,0.3-0.6c0-0.2-0.1-0.4-0.2-0.6s-0.5-0.3-1.1-0.4l-0.3-0.1c-0.6-0.1-1-0.3-1.2-0.5
	c-0.2-0.2-0.4-0.6-0.4-1c0-0.5,0.2-0.9,0.5-1.2c0.4-0.3,0.9-0.4,1.6-0.4c0.3,0,0.6,0,0.9,0.1C271.4,49.7,271.7,49.7,272,49.8"/>
<path d="M277.6,49.9v0.8c-0.3-0.1-0.5-0.2-0.8-0.3c-0.3-0.1-0.5-0.1-0.8-0.1c-0.6,0-1,0.2-1.4,0.6s-0.5,0.9-0.5,1.5
	c0,0.7,0.2,1.2,0.5,1.6c0.3,0.4,0.8,0.6,1.4,0.6c0.3,0,0.5,0,0.8-0.1c0.3-0.1,0.5-0.2,0.8-0.3v0.8c-0.3,0.1-0.5,0.2-0.8,0.3
	c-0.3,0.1-0.6,0.1-0.9,0.1c-0.8,0-1.5-0.2-2-0.8c-0.5-0.5-0.7-1.2-0.7-2.1c0-0.9,0.2-1.6,0.7-2.1c0.5-0.5,1.2-0.8,2-0.8
	c0.3,0,0.5,0,0.8,0.1C277.1,49.7,277.4,49.8,277.6,49.9"/>
<path d="M283.5,52v3.1h-0.9v-0.8c-0.2,0.3-0.5,0.6-0.8,0.7c-0.3,0.1-0.7,0.2-1.1,0.2c-0.6,0-1-0.1-1.3-0.5c-0.3-0.3-0.5-0.7-0.5-1.3
	c0-0.6,0.2-1.1,0.6-1.4c0.4-0.3,1-0.5,1.8-0.5h1.3v-0.1c0-0.4-0.1-0.7-0.4-1c-0.3-0.2-0.6-0.3-1.1-0.3c-0.3,0-0.6,0-0.9,0.1
	s-0.6,0.2-0.9,0.3v-0.8c0.3-0.1,0.6-0.2,1-0.3s0.6-0.1,0.9-0.1c0.8,0,1.4,0.2,1.8,0.6C283.3,50.6,283.5,51.2,283.5,52 M281.7,52.4
	c-0.7,0-1.2,0.1-1.5,0.2c-0.3,0.2-0.4,0.5-0.4,0.9c0,0.3,0.1,0.6,0.3,0.8c0.2,0.2,0.5,0.3,0.9,0.3c0.5,0,0.9-0.2,1.2-0.5
	c0.3-0.3,0.5-0.8,0.5-1.4v-0.2H281.7"/>
<polyline points="285.3,47.5 286.2,47.5 286.2,55.1 285.3,55.1 285.3,47.5 "/>
<path d="M291.9,51.9c0-0.5-0.1-0.9-0.4-1.2c-0.3-0.3-0.6-0.4-1.1-0.4c-0.5,0-0.9,0.1-1.2,0.4s-0.5,0.7-0.5,1.2H291.9 M292.8,52.2
	v0.4h-4.1c0,0.6,0.2,1.1,0.6,1.4c0.3,0.3,0.8,0.5,1.4,0.5c0.3,0,0.7,0,1-0.1c0.3-0.1,0.6-0.2,1-0.4v0.9c-0.3,0.1-0.6,0.2-1,0.3
	s-0.7,0.1-1,0.1c-0.9,0-1.6-0.2-2.1-0.8c-0.5-0.5-0.8-1.2-0.8-2.1c0-0.9,0.2-1.6,0.7-2.1c0.5-0.5,1.1-0.8,2-0.8
	c0.7,0,1.3,0.2,1.8,0.7C292.6,50.7,292.8,51.4,292.8,52.2"/>
<path d="M299.5,49.5c0.8,0,1.4,0.3,1.8,0.8c0.4,0.5,0.7,1.2,0.7,2.1c0,0.9-0.2,1.6-0.7,2.1c-0.4,0.5-1.1,0.8-1.8,0.8
	c-0.8,0-1.4-0.2-1.8-0.8c-0.4-0.5-0.7-1.2-0.7-2.1c0-0.9,0.2-1.6,0.7-2.1C298.1,49.8,298.8,49.5,299.5,49.5 M299.5,50.3
	c-0.5,0-0.9,0.2-1.1,0.6c-0.3,0.4-0.4,0.9-0.4,1.5c0,0.7,0.1,1.2,0.4,1.6s0.7,0.6,1.1,0.6c0.5,0,0.9-0.2,1.1-0.6s0.4-0.9,0.4-1.6
	c0-0.6-0.1-1.2-0.4-1.5C300.4,50.5,300,50.3,299.5,50.3"/>
<path d="M306.3,47.5v0.8h-0.9c-0.3,0-0.5,0.1-0.7,0.2c-0.1,0.1-0.2,0.4-0.2,0.7v0.5h1.5v0.7h-1.5v4.8h-0.9v-4.8h-0.9v-0.7h0.9v-0.4
	c0-0.6,0.1-1,0.4-1.3s0.7-0.4,1.4-0.4H306.3"/>
<path d="M312.2,47.8h1.1l2.8,7.3h-1l-0.7-1.9h-3.3l-0.7,1.9h-1L312.2,47.8 M312.7,48.8l-1.3,3.6h2.7L312.7,48.8"/>
<path d="M321.2,48.1v1.5h1.9v0.7h-1.9v3c0,0.4,0.1,0.7,0.2,0.9c0.1,0.1,0.4,0.2,0.8,0.2h0.9v0.8h-0.9c-0.7,0-1.2-0.1-1.4-0.4
	c-0.3-0.3-0.4-0.7-0.4-1.4v-3h-0.7v-0.7h0.7v-1.5H321.2"/>
<path d="M326.3,49.5c0.8,0,1.4,0.3,1.8,0.8c0.4,0.5,0.7,1.2,0.7,2.1c0,0.9-0.2,1.6-0.7,2.1c-0.4,0.5-1.1,0.8-1.8,0.8
	c-0.8,0-1.4-0.2-1.9-0.8c-0.4-0.5-0.7-1.2-0.7-2.1c0-0.9,0.2-1.6,0.7-2.1C324.9,49.8,325.5,49.5,326.3,49.5 M326.3,50.3
	c-0.5,0-0.9,0.2-1.1,0.6c-0.3,0.4-0.4,0.9-0.4,1.5c0,0.7,0.1,1.2,0.4,1.6s0.7,0.6,1.1,0.6c0.5,0,0.9-0.2,1.1-0.6s0.4-0.9,0.4-1.6
	c0-0.6-0.1-1.2-0.4-1.5C327.2,50.5,326.8,50.3,326.3,50.3"/>
<polyline points="333.5,47.8 334.5,47.8 334.5,54.3 338.1,54.3 338.1,55.1 333.5,55.1 333.5,47.8 "/>
<polyline points="339.3,53.9 340.3,53.9 340.3,54.7 339.5,56.3 338.9,56.3 339.3,54.7 339.3,53.9 "/>
<polyline points="344.9,49.7 345.8,49.7 346.9,53.9 348,49.7 349.1,49.7 350.2,53.9 351.3,49.7 352.2,49.7 350.8,55.1 349.7,55.1 
	348.6,50.7 347.4,55.1 346.3,55.1 344.9,49.7 "/>
<path d="M353.6,47.5h0.9v1.1h-0.9V47.5 M353.6,49.7h0.9v5.5h-0.9V49.7"/>
<path d="M357.3,48.1v1.5h1.9v0.7h-1.9v3c0,0.4,0.1,0.7,0.2,0.9c0.1,0.1,0.4,0.2,0.8,0.2h0.9v0.8h-0.9c-0.7,0-1.2-0.1-1.4-0.4
	c-0.3-0.3-0.4-0.7-0.4-1.4v-3h-0.7v-0.7h0.7v-1.5H357.3"/>
<path d="M364.8,51.8v3.3h-0.9v-3.3c0-0.5-0.1-0.9-0.3-1.2c-0.2-0.3-0.5-0.4-0.9-0.4c-0.5,0-0.9,0.2-1.1,0.5s-0.4,0.7-0.4,1.3v3.1
	h-0.9v-7.6h0.9v3c0.2-0.3,0.5-0.6,0.8-0.7c0.3-0.2,0.6-0.2,1-0.2c0.6,0,1.1,0.2,1.4,0.6C364.7,50.5,364.8,51.1,364.8,51.8"/>
<polyline points="369.9,47.8 370.8,47.8 370.8,54.3 374.4,54.3 374.4,55.1 369.9,55.1 369.9,47.8 "/>
<path d="M379.4,50.5c0.2-0.3,0.4-0.6,0.7-0.7c0.3-0.2,0.6-0.2,1-0.2c0.7,0,1.2,0.3,1.6,0.8c0.4,0.5,0.6,1.2,0.6,2.1
	c0,0.9-0.2,1.6-0.6,2.1c-0.4,0.5-1,0.8-1.6,0.8c-0.4,0-0.8-0.1-1-0.2c-0.3-0.1-0.5-0.4-0.7-0.7v0.8h-0.9v-7.6h0.9V50.5 M382.5,52.4
	c0-0.7-0.1-1.2-0.4-1.5c-0.3-0.4-0.6-0.6-1.1-0.6c-0.5,0-0.9,0.2-1.1,0.6c-0.3,0.4-0.4,0.9-0.4,1.5s0.1,1.2,0.4,1.6
	c0.3,0.4,0.6,0.6,1.1,0.6c0.5,0,0.8-0.2,1.1-0.6C382.4,53.6,382.5,53.1,382.5,52.4"/>
<path d="M388.7,51.9c0-0.5-0.1-0.9-0.4-1.2c-0.3-0.3-0.6-0.4-1.1-0.4c-0.5,0-0.9,0.1-1.2,0.4c-0.3,0.3-0.5,0.7-0.5,1.2H388.7
	 M389.6,52.2v0.4h-4.1c0,0.6,0.2,1.1,0.6,1.4c0.3,0.3,0.8,0.5,1.4,0.5c0.3,0,0.7,0,1-0.1c0.3-0.1,0.6-0.2,1-0.4v0.9
	c-0.3,0.1-0.6,0.2-1,0.3c-0.3,0.1-0.7,0.1-1,0.1c-0.9,0-1.6-0.2-2.1-0.8s-0.8-1.2-0.8-2.1c0-0.9,0.2-1.6,0.7-2.1
	c0.5-0.5,1.1-0.8,2-0.8c0.7,0,1.3,0.2,1.8,0.7C389.4,50.7,389.6,51.4,389.6,52.2"/>
<path d="M391.1,47.5h0.9v1.1h-0.9V47.5 M391.1,49.7h0.9v5.5h-0.9V49.7"/>
<path d="M398.4,51.8v3.3h-0.9v-3.3c0-0.5-0.1-0.9-0.3-1.2c-0.2-0.3-0.5-0.4-0.9-0.4c-0.5,0-0.9,0.2-1.1,0.5s-0.4,0.7-0.4,1.3v3.1
	h-0.9v-5.5h0.9v0.9c0.2-0.3,0.5-0.6,0.8-0.7c0.3-0.2,0.6-0.2,1-0.2c0.6,0,1.1,0.2,1.4,0.6C398.2,50.5,398.4,51.1,398.4,51.8"/>
<path d="M404.7,54.5c0,0.9-0.2,1.6-0.6,2.1c-0.4,0.4-1.1,0.7-1.9,0.7c-0.3,0-0.6,0-0.9-0.1c-0.3,0-0.6-0.1-0.8-0.2V56
	c0.3,0.1,0.5,0.2,0.8,0.3c0.3,0.1,0.5,0.1,0.8,0.1c0.6,0,1-0.2,1.3-0.5c0.3-0.3,0.4-0.8,0.4-1.4v-0.4c-0.2,0.3-0.4,0.6-0.7,0.7
	c-0.3,0.2-0.6,0.2-1,0.2c-0.7,0-1.2-0.2-1.6-0.8c-0.4-0.5-0.6-1.2-0.6-2c0-0.8,0.2-1.5,0.6-2c0.4-0.5,0.9-0.8,1.6-0.8
	c0.4,0,0.7,0.1,1,0.2c0.3,0.2,0.5,0.4,0.7,0.7v-0.8h0.9V54.5 M403.8,52.3c0-0.6-0.1-1.2-0.4-1.5c-0.3-0.4-0.7-0.5-1.1-0.5
	c-0.5,0-0.9,0.2-1.1,0.5c-0.3,0.4-0.4,0.9-0.4,1.5c0,0.6,0.1,1.1,0.4,1.5c0.3,0.4,0.6,0.5,1.1,0.5c0.5,0,0.9-0.2,1.1-0.5
	C403.6,53.5,403.8,53,403.8,52.3"/>
<path d="M410.6,48.1v1.5h1.9v0.7h-1.9v3c0,0.4,0.1,0.7,0.2,0.9c0.1,0.1,0.4,0.2,0.8,0.2h0.9v0.8h-0.9c-0.7,0-1.2-0.1-1.4-0.4
	c-0.3-0.3-0.4-0.7-0.4-1.4v-3H409v-0.7h0.7v-1.5H410.6"/>
<path d="M418.2,51.8v3.3h-0.9v-3.3c0-0.5-0.1-0.9-0.3-1.2c-0.2-0.3-0.5-0.4-0.9-0.4c-0.5,0-0.9,0.2-1.1,0.5s-0.4,0.7-0.4,1.3v3.1
	h-0.9v-7.6h0.9v3c0.2-0.3,0.5-0.6,0.8-0.7c0.3-0.2,0.6-0.2,1-0.2c0.6,0,1.1,0.2,1.4,0.6C418,50.5,418.2,51.1,418.2,51.8"/>
<path d="M423.8,51.9c0-0.5-0.1-0.9-0.4-1.2c-0.3-0.3-0.6-0.4-1.1-0.4c-0.5,0-0.9,0.1-1.2,0.4c-0.3,0.3-0.5,0.7-0.5,1.2H423.8
	 M424.7,52.2v0.4h-4.1c0,0.6,0.2,1.1,0.6,1.4c0.3,0.3,0.8,0.5,1.4,0.5c0.3,0,0.7,0,1-0.1c0.3-0.1,0.6-0.2,1-0.4v0.9
	c-0.3,0.1-0.6,0.2-1,0.3c-0.3,0.1-0.7,0.1-1,0.1c-0.9,0-1.6-0.2-2.1-0.8s-0.8-1.2-0.8-2.1c0-0.9,0.2-1.6,0.7-2.1
	c0.5-0.5,1.1-0.8,2-0.8c0.7,0,1.3,0.2,1.8,0.7C424.4,50.7,424.7,51.4,424.7,52.2"/>
<path d="M433.6,50.7c0.2-0.4,0.5-0.7,0.8-0.9c0.3-0.2,0.7-0.3,1.1-0.3c0.6,0,1,0.2,1.3,0.6c0.3,0.4,0.5,1,0.5,1.7v3.3h-0.9v-3.3
	c0-0.5-0.1-0.9-0.3-1.2c-0.2-0.2-0.5-0.4-0.9-0.4c-0.5,0-0.8,0.2-1.1,0.5s-0.4,0.7-0.4,1.3v3.1h-0.9v-3.3c0-0.5-0.1-0.9-0.3-1.2
	c-0.2-0.2-0.5-0.4-0.9-0.4c-0.5,0-0.8,0.2-1.1,0.5c-0.3,0.3-0.4,0.7-0.4,1.3v3.1h-0.9v-5.5h0.9v0.9c0.2-0.3,0.5-0.6,0.7-0.7
	c0.3-0.2,0.6-0.2,1-0.2s0.7,0.1,1,0.3C433.2,50,433.4,50.3,433.6,50.7"/>
<path d="M441.2,49.5c0.8,0,1.4,0.3,1.8,0.8c0.4,0.5,0.7,1.2,0.7,2.1c0,0.9-0.2,1.6-0.7,2.1c-0.4,0.5-1.1,0.8-1.8,0.8
	c-0.8,0-1.4-0.2-1.9-0.8c-0.4-0.5-0.7-1.2-0.7-2.1c0-0.9,0.2-1.6,0.7-2.1C439.8,49.8,440.4,49.5,441.2,49.5 M441.2,50.3
	c-0.5,0-0.9,0.2-1.1,0.6c-0.3,0.4-0.4,0.9-0.4,1.5c0,0.7,0.1,1.2,0.4,1.6s0.7,0.6,1.1,0.6c0.5,0,0.9-0.2,1.1-0.6s0.4-0.9,0.4-1.6
	c0-0.6-0.1-1.2-0.4-1.5C442,50.5,441.6,50.3,441.2,50.3"/>
<path d="M448.7,49.8v0.9c-0.3-0.1-0.5-0.2-0.8-0.3c-0.3-0.1-0.6-0.1-0.9-0.1c-0.5,0-0.8,0.1-1,0.2c-0.2,0.1-0.3,0.3-0.3,0.6
	c0,0.2,0.1,0.4,0.2,0.5s0.5,0.2,1,0.3l0.3,0.1c0.6,0.1,1.1,0.3,1.4,0.6c0.3,0.2,0.4,0.6,0.4,1c0,0.5-0.2,0.9-0.6,1.2
	c-0.4,0.3-1,0.4-1.7,0.4c-0.3,0-0.6,0-0.9-0.1c-0.3,0-0.6-0.1-1-0.2V54c0.3,0.2,0.7,0.3,1,0.4c0.3,0.1,0.6,0.1,1,0.1
	c0.4,0,0.8-0.1,1-0.2c0.2-0.1,0.3-0.4,0.3-0.6c0-0.2-0.1-0.4-0.2-0.6c-0.2-0.1-0.5-0.3-1.1-0.4l-0.3-0.1c-0.6-0.1-1-0.3-1.2-0.5
	c-0.2-0.2-0.4-0.6-0.4-1c0-0.5,0.2-0.9,0.5-1.2c0.4-0.3,0.9-0.4,1.6-0.4c0.3,0,0.6,0,0.9,0.1C448.1,49.7,448.4,49.7,448.7,49.8"/>
<path d="M451.3,48.1v1.5h1.9v0.7h-1.9v3c0,0.4,0.1,0.7,0.2,0.9c0.1,0.1,0.4,0.2,0.8,0.2h0.9v0.8h-0.9c-0.7,0-1.2-0.1-1.4-0.4
	c-0.3-0.3-0.4-0.7-0.4-1.4v-3h-0.7v-0.7h0.7v-1.5H451.3"/>
<path d="M461,49.8v0.9c-0.3-0.1-0.5-0.2-0.8-0.3c-0.3-0.1-0.6-0.1-0.9-0.1c-0.5,0-0.8,0.1-1,0.2c-0.2,0.1-0.3,0.3-0.3,0.6
	c0,0.2,0.1,0.4,0.2,0.5s0.5,0.2,1,0.3l0.3,0.1c0.6,0.1,1.1,0.3,1.4,0.6c0.3,0.2,0.4,0.6,0.4,1c0,0.5-0.2,0.9-0.6,1.2
	c-0.4,0.3-1,0.4-1.7,0.4c-0.3,0-0.6,0-0.9-0.1c-0.3,0-0.6-0.1-1-0.2V54c0.3,0.2,0.7,0.3,1,0.4c0.3,0.1,0.6,0.1,1,0.1
	c0.4,0,0.8-0.1,1-0.2c0.2-0.1,0.3-0.4,0.3-0.6c0-0.2-0.1-0.4-0.2-0.6c-0.2-0.1-0.5-0.3-1.1-0.4l-0.3-0.1c-0.6-0.1-1-0.3-1.2-0.5
	c-0.2-0.2-0.4-0.6-0.4-1c0-0.5,0.2-0.9,0.5-1.2c0.4-0.3,0.9-0.4,1.6-0.4c0.3,0,0.6,0,0.9,0.1C460.4,49.7,460.7,49.7,461,49.8"/>
<path d="M466.5,51.9c0-0.5-0.1-0.9-0.4-1.2c-0.3-0.3-0.6-0.4-1.1-0.4c-0.5,0-0.9,0.1-1.2,0.4c-0.3,0.3-0.5,0.7-0.5,1.2H466.5
	 M467.4,52.2v0.4h-4.1c0,0.6,0.2,1.1,0.6,1.4c0.3,0.3,0.8,0.5,1.4,0.5c0.3,0,0.7,0,1-0.1c0.3-0.1,0.6-0.2,1-0.4v0.9
	c-0.3,0.1-0.6,0.2-1,0.3c-0.3,0.1-0.7,0.1-1,0.1c-0.9,0-1.6-0.2-2.1-0.8s-0.8-1.2-0.8-2.1c0-0.9,0.2-1.6,0.7-2.1
	c0.5-0.5,1.1-0.8,2-0.8c0.7,0,1.3,0.2,1.8,0.7C467.1,50.7,467.4,51.4,467.4,52.2"/>
<polyline points="468.2,49.7 469.1,49.7 470.9,54.3 472.6,49.7 473.5,49.7 471.5,55.1 470.2,55.1 468.2,49.7 "/>
<path d="M478.5,51.9c0-0.5-0.1-0.9-0.4-1.2c-0.3-0.3-0.6-0.4-1.1-0.4c-0.5,0-0.9,0.1-1.2,0.4c-0.3,0.3-0.5,0.7-0.5,1.2H478.5
	 M479.4,52.2v0.4h-4.1c0,0.6,0.2,1.1,0.6,1.4c0.3,0.3,0.8,0.5,1.4,0.5c0.3,0,0.7,0,1-0.1c0.3-0.1,0.6-0.2,1-0.4v0.9
	c-0.3,0.1-0.6,0.2-1,0.3c-0.3,0.1-0.7,0.1-1,0.1c-0.9,0-1.6-0.2-2.1-0.8s-0.8-1.2-0.8-2.1c0-0.9,0.2-1.6,0.7-2.1
	c0.5-0.5,1.1-0.8,2-0.8c0.7,0,1.3,0.2,1.8,0.7C479.2,50.7,479.4,51.4,479.4,52.2"/>
<path d="M484.1,50.5c-0.1-0.1-0.2-0.1-0.3-0.1c-0.1,0-0.2,0-0.4,0c-0.5,0-0.9,0.2-1.2,0.5c-0.3,0.3-0.4,0.8-0.4,1.4v2.9h-0.9v-5.5
	h0.9v0.9c0.2-0.3,0.4-0.6,0.7-0.7c0.3-0.2,0.7-0.2,1.1-0.2c0.1,0,0.1,0,0.2,0c0.1,0,0.2,0,0.2,0V50.5"/>
<path d="M488.8,51.9c0-0.5-0.1-0.9-0.4-1.2c-0.3-0.3-0.6-0.4-1.1-0.4c-0.5,0-0.9,0.1-1.2,0.4c-0.3,0.3-0.5,0.7-0.5,1.2H488.8
	 M489.7,52.2v0.4h-4.1c0,0.6,0.2,1.1,0.6,1.4c0.3,0.3,0.8,0.5,1.4,0.5c0.3,0,0.7,0,1-0.1c0.3-0.1,0.6-0.2,1-0.4v0.9
	c-0.3,0.1-0.6,0.2-1,0.3c-0.3,0.1-0.7,0.1-1,0.1c-0.9,0-1.6-0.2-2.1-0.8s-0.8-1.2-0.8-2.1c0-0.9,0.2-1.6,0.7-2.1
	c0.5-0.5,1.1-0.8,2-0.8c0.7,0,1.3,0.2,1.8,0.7C489.5,50.7,489.7,51.4,489.7,52.2"/>
<polyline points="491.3,53.9 492.3,53.9 492.3,55.1 491.3,55.1 491.3,53.9 "/>
<line class="st6" x1="306.1" y1="239.3" x2="281.4" y2="259.7"/>
<rect x="48.8" y="24.3" class="st6" width="493.4" height="23.8"/>
<text transform="matrix(1 0 0 1 48.8022 37.9742)" class="st7 st8">The Most Common Type of Nursing Home Deficiencies</text>
<g>
	<g>
		<path class="st9" d="M405.1,285.7h223.7c7.5,0,11.3-0.5,11.3-1.4v-109c0-0.9-3.8-1.4-11.3-1.4H405.1c-7.5,0-11.3,0.5-11.3,1.4v109
			C393.8,285.2,397.6,285.7,405.1,285.7z"/>
		<path class="st10" d="M409.4,285.7h310.6c10.4,0,15.6-0.5,15.6-1.4v-109c0-0.9-5.2-1.4-15.6-1.4H409.4c-10.4,0-15.6,0.5-15.6,1.4
			v109C393.8,285.2,399,285.7,409.4,285.7z"/>
	</g>
	<rect x="407.9" y="212" class="st1" width="30.4" height="10.6"/>
	<rect x="407.9" y="232.9" class="st2" width="30.4" height="10.6"/>
	<rect x="407.1" y="255.4" class="st11" width="30.4" height="10.6"/>
	<rect x="408.3" y="190.7" class="st0" width="30.4" height="10.6"/>
	<text transform="matrix(1 0 0 1 451.9377 199.7877)" class="st12 st13">No Actual Harm</text>
	<text transform="matrix(1 0 0 1 451.2907 220.969)" class="st12 st13">Potential for More Than Minimal Harm</text>
	<text transform="matrix(1 0 0 1 451.2907 242.5606)" class="st12 st13">Actual Harm But No Immediate Jeopardy</text>
	<text transform="matrix(1 0 0 1 451.9378 264.0433)" class="st12 st13">Immediate Jeopardy to Resident Health</text>
</g>
</svg>
